<?xml version="1.0" encoding="utf-8"?>
<!-- Generator: Adobe Illustrator 18.1.1, SVG Export Plug-In . SVG Version: 6.00 Build 0)  -->
<svg version="1.1" id="Layer_1" xmlns="http://www.w3.org/2000/svg" xmlns:xlink="http://www.w3.org/1999/xlink" x="0px" y="0px"
	 viewBox="0 0 1000 1000" enable-background="new 0 0 1000 1000" xml:space="preserve">
<g>
	<g>
		<g>
			<path fill="#70C99F" d="M698.9,230.1v-12.7c0-8.2-6.7-14.9-14.9-14.9H499.4V245h184.6C692.2,245,698.9,238.3,698.9,230.1z"/>
			<path fill="#70C99F" d="M637.4,132.2v-16.6c0-7.2-5.8-13-13-13H499.4v42.5h125.1C631.6,145.1,637.4,139.3,637.4,132.2z"/>
			<path fill="#70C99F" d="M745.9,683.2V279.4c0-3.2-2.6-5.8-5.8-5.8H499.4c0,0-0.1,0-0.1,0.1v68.5c0,0,0,0.1,0.1,0.1h97.3
				c3.2,0,5.8,2.6,5.8,5.8v54.6c0,3.2-2.6,5.8-5.8,5.8h-97.3c0,0-0.1,0-0.1,0.1v13.2c0,0,0,0.1,0.1,0.1h94.2c3.1,0,6,2.3,6.1,5.5
				c0.1,3.3-2.5,6-5.7,6h-94.5c0,0-0.1,0-0.1,0.1v255.7c0,0,0,0.1,0.1,0.1h240.7C743.3,689,745.9,686.4,745.9,683.2z"/>
		</g>
		<g>
			<path fill="#3D9B6A" d="M301.1,230v-12.7c0-8.2,6.7-14.9,14.9-14.9h184.6v42.5H316.1C307.8,244.9,301.1,238.2,301.1,230z"/>
			<path fill="#3D9B6A" d="M362.6,132.1v-16.6c0-7.2,5.8-13,13-13h125.1V145H375.6C368.4,145,362.6,139.2,362.6,132.1z"/>
			<path fill="#3D9B6A" d="M254.1,683.1V279.2c0-3.2,2.6-5.7,5.7-5.7h240.8v68.6h-97.5c-3.2,0-5.7,2.6-5.7,5.7v54.7
				c0,3.2,2.6,5.7,5.7,5.7h97.5v13.3H406c-3.2,0-5.7,2.6-5.7,5.7c0,3.2,2.6,5.7,5.7,5.7h94.6v255.8H259.8
				C256.7,688.9,254.1,686.3,254.1,683.1z"/>
		</g>
		<g>
			<path fill="#FFFFFF" d="M518.2,666.1h-49.3c-5.6,0-10.1-4.5-10.1-10.1V492c0-5.6,4.5-10.1,10.1-10.1h49.3
				c5.6,0,10.1,4.5,10.1,10.1v164C528.3,661.5,523.8,666.1,518.2,666.1z"/>
			<path fill="#FFFFFF" d="M581,547.4v53c0,5.6-4.5,10.1-10.1,10.1H416.2c-5.6,0-10.1-4.5-10.1-10.1v-53c0-5.6,4.5-10.1,10.1-10.1
				h154.7C576.5,537.3,581,541.8,581,547.4z"/>
		</g>
		<g>
			<path fill="#EC2426" d="M525,654.2h-48.6c-5.6,0-10.1-4.5-10.1-10.1v-153c0-5.6,4.5-10.1,10.1-10.1H525c5.6,0,10.1,4.5,10.1,10.1
				v153C535.1,649.7,530.6,654.2,525,654.2z"/>
			<path fill="#EC2426" d="M587.3,543.3v48.6c0,5.6-4.5,10.1-10.1,10.1h-153c-5.6,0-10.1-4.5-10.1-10.1v-48.6
				c0-5.6,4.5-10.1,10.1-10.1h153C582.7,533.2,587.3,537.7,587.3,543.3z"/>
		</g>
	</g>
	<g>
		<g>
			<path fill="#3D9B6A" d="M310.9,881.2H47.5c-2.2,0-4.1-1.8-4.1-4.1v-3.9c0-2.2,1.8-4.1,4.1-4.1h263.3c2.2,0,4.1,1.8,4.1,4.1v3.9
				C314.9,879.4,313.1,881.2,310.9,881.2z"/>
			<path fill="#70C99F" d="M954,881.2H690.7c-2.2,0-4.1-1.8-4.1-4.1v-3.9c0-2.2,1.8-4.1,4.1-4.1H954c2.2,0,4.1,1.8,4.1,4.1v3.9
				C958.1,879.4,956.3,881.2,954,881.2z"/>
			<g>
				<path fill="#EC2426" d="M357.3,880.3l12.1,0.7c-0.6,5.3-2.5,9.4-5.9,12.2c-3.4,2.8-7.5,4.2-12.3,4.2c-5.9,0-10.6-1.9-14.2-5.8
					c-3.6-3.9-5.4-9.3-5.4-16.1c0-6.8,1.7-12.3,5.1-16.4c3.4-4.2,8.2-6.2,14.3-6.2c5.7,0,10.1,1.6,13.2,4.8
					c3.1,3.2,4.8,7.4,5.2,12.6l-12.4,0.7c0-2.9-0.6-5-1.7-6.3c-1.1-1.3-2.4-1.9-3.9-1.9c-4.2,0-6.3,4.2-6.3,12.6
					c0,4.7,0.5,7.9,1.6,9.6c1.1,1.7,2.6,2.5,4.6,2.5C354.9,887.5,356.9,885.1,357.3,880.3z"/>
				<path fill="#EC2426" d="M411,853.6v43.3h-13.3V880h-10.1v16.8h-13.3v-43.3h13.3v15.9h10.1v-15.9H411z"/>
				<path fill="#EC2426" d="M453.6,853.6v28.7c0,5.4-1.6,9.3-4.8,11.7c-3.2,2.4-7.4,3.6-12.6,3.6c-5.5,0-9.8-1.1-13.1-3.4
					c-3.3-2.3-5-6-5-11.2v-29.4h13.5v27.8c0,2.1,0.4,3.6,1.3,4.5c0.9,1,2.3,1.4,4.2,1.4c1.6,0,2.9-0.3,3.9-1c1-0.7,1.6-1.5,1.8-2.3
					c0.2-0.9,0.3-2.6,0.3-5.1v-25.3H453.6z"/>
				<path fill="#EC2426" d="M495.7,897.5c-6.1,0-11-2-14.9-6.1c-3.8-4-5.8-9.4-5.8-16.2c0-6.5,1.8-11.8,5.5-16
					c3.7-4.2,8.8-6.3,15.3-6.3c6,0,10.9,2,14.7,6c3.8,4,5.7,9.3,5.7,15.9c0,6.9-1.9,12.4-5.7,16.5
					C506.6,895.4,501.7,897.5,495.7,897.5z M495.6,887.7c2.2,0,3.9-1,4.8-2.9c1-2,1.5-5.5,1.5-10.7c0-7.5-2-11.3-6.1-11.3
					c-4.4,0-6.5,4.3-6.5,12.9C489.3,883.6,491.4,887.7,495.6,887.7z"/>
				<path fill="#EC2426" d="M556.9,853.6v28.7c0,5.4-1.6,9.3-4.8,11.7c-3.2,2.4-7.4,3.6-12.6,3.6c-5.5,0-9.8-1.1-13.1-3.4
					c-3.3-2.3-5-6-5-11.2v-29.4h13.5v27.8c0,2.1,0.4,3.6,1.3,4.5c0.9,1,2.3,1.4,4.2,1.4c1.6,0,2.9-0.3,3.9-1c1-0.7,1.6-1.5,1.8-2.3
					c0.2-0.9,0.3-2.6,0.3-5.1v-25.3H556.9z"/>
				<path fill="#EC2426" d="M583.9,853.6v27.3c0,4.2-0.4,7.4-1.1,9.6c-0.8,2.2-2.2,3.9-4.4,5.2c-2.2,1.3-5.1,1.9-8.8,1.9
					c-3.3,0-6.2-0.3-8.9-1l0-9.6l5.2,0c1.9,0,3.3-0.4,4.1-1.3c0.8-0.9,1.2-2.5,1.2-4.8v-27.3H583.9z"/>
				<path fill="#EC2426" d="M591,896.8v-43.3h16.7c7.3,0,12.7,2.2,16.3,6.5s5.4,9.3,5.4,15c0,6.5-1.9,11.7-5.8,15.8
					c-3.9,4-8.9,6.1-15.1,6.1H591z M604.3,886.9h3.5c2.2,0,4.1-1.1,5.6-3.2c1.5-2.1,2.3-5,2.3-8.7c0-3.1-0.7-5.9-2-8.1
					c-1.3-2.3-3.3-3.4-5.8-3.4h-3.5V886.9z"/>
				<path fill="#EC2426" d="M657.6,896.8l-2.4-8.5h-11.6l-2.6,8.5h-10.8l13.4-43.3h14l13.6,43.3H657.6z M645.8,878.9h7l-3.5-12.6
					L645.8,878.9z"/>
			</g>
		</g>
		<g>
			<path d="M178.5,824.8h-24.1l-10.3-27.1h-6.9v27.1h-21.7V754h37c8.2,0,14.5,1.9,19,5.7c4.5,3.8,6.8,8.9,6.8,15.1
				c0,4.1-0.8,7.7-2.5,10.8c-1.7,3.1-5,5.9-10.1,8.3l0,0L178.5,824.8z M137.2,782.6h9.3c2.7,0,4.9-0.6,6.6-1.7s2.5-2.8,2.5-5
				c0-4.5-2.8-6.8-8.4-6.8h-10V782.6z"/>
			<path d="M227.1,797.8l19.9,1.2c-0.9,8.7-4.1,15.3-9.6,20c-5.5,4.6-12.2,7-20.2,7c-9.6,0-17.4-3.2-23.3-9.5s-8.9-15.1-8.9-26.4
				c0-11.1,2.8-20.1,8.4-26.9c5.6-6.8,13.4-10.2,23.5-10.2c9.4,0,16.6,2.6,21.6,7.8c5,5.2,7.9,12.1,8.5,20.6l-20.3,1.1
				c0-4.7-0.9-8.2-2.7-10.3s-4-3.2-6.4-3.2c-6.8,0-10.3,6.9-10.3,20.6c0,7.7,0.9,13,2.7,15.7c1.8,2.8,4.3,4.2,7.5,4.2
				C223.1,809.5,226.4,805.6,227.1,797.8z"/>
			<path d="M314.9,754v70.8h-21.7v-27.5h-16.6v27.5h-21.7V754h21.7v26h16.6v-26H314.9z"/>
			<path d="M349,754v70.8h-21.7V754H349z"/>
			<path d="M422.6,754l-22,70.8h-22.2l-23-70.8h22.9l11.2,38.6l2.1,6.4l13-45H422.6z"/>
			<path d="M482.4,807.9v16.9h-53.3V754h53.3v16.3h-32v10.3h25.8v15.7h-25.8v11.6H482.4z"/>
			<path d="M594.6,754v70.8h-20.2v-50.6l-13.1,50.6h-13.8l-13.6-50.6v50.6h-16.3V754H546l10.3,37.6l9.8-37.6H594.6z"/>
			<path d="M660.2,807.9v16.9h-53.3V754h53.3v16.3h-32v10.3h25.8v15.7h-25.8v11.6H660.2z"/>
			<path d="M668.8,824.8V754h27.4c11.9,0,20.8,3.5,26.7,10.6c5.9,7.1,8.9,15.2,8.9,24.5c0,10.6-3.2,19.2-9.5,25.8
				c-6.3,6.6-14.6,9.9-24.7,9.9H668.8z M690.6,808.5h5.7c3.6,0,6.6-1.7,9.1-5.2c2.5-3.5,3.7-8.2,3.7-14.3c0-5.2-1.1-9.6-3.3-13.3
				c-2.2-3.7-5.4-5.6-9.5-5.6h-5.7V808.5z"/>
			<path d="M762.7,754v70.8H741V754H762.7z"/>
			<path d="M814,797.8l19.9,1.2c-0.9,8.7-4.1,15.3-9.6,20c-5.5,4.6-12.2,7-20.2,7c-9.6,0-17.4-3.2-23.3-9.5s-8.9-15.1-8.9-26.4
				c0-11.1,2.8-20.1,8.4-26.9c5.6-6.8,13.4-10.2,23.5-10.2c9.4,0,16.6,2.6,21.6,7.8c5,5.2,7.9,12.1,8.5,20.6l-20.3,1.1l0,0
				c0-4.7-0.9-8.2-2.7-10.3c-1.8-2.1-4-3.2-6.4-3.2c-6.8,0-10.3,6.9-10.3,20.6c0,7.7,0.9,13,2.7,15.7c1.8,2.8,4.3,4.2,7.5,4.2
				C810.1,809.5,813.4,805.6,814,797.8z"/>
			<path d="M879.7,824.8l-4-14h-19l-4.3,14h-17.6l21.9-70.8h23l22.2,70.8H879.7z M860.4,795.4h11.5l-5.7-20.5L860.4,795.4z"/>
			<path d="M958.1,807.4v17.4h-49.7V754h21.7v53.4H958.1z"/>
			<path d="M86.8,824.8l-4-14h-19l-4.3,14H41.9L63.8,754h23l22.2,70.8H86.8z M67.5,795.4H79l-5.7-20.5L67.5,795.4z"/>
		</g>
	</g>
</g>
</svg>
