<?xml version="1.0" encoding="utf-8"?>
<!-- Generator: Adobe Illustrator 18.1.1, SVG Export Plug-In . SVG Version: 6.00 Build 0)  -->
<svg version="1.1" id="Layer_1" xmlns="http://www.w3.org/2000/svg" xmlns:xlink="http://www.w3.org/1999/xlink" x="0px" y="0px"
	 viewBox="0 0 1000 653.1" enable-background="new 0 0 1000 653.1" xml:space="preserve">
<g>
	<path fill="#FFFFFF" d="M486.1,288.9l0-13.9c0-6.6-3.6-12.7-9.4-15.8l-146.4-78.4c-11.9-6.4-26.3,2.3-26.3,15.8l0,24.6l0,87.8
		c0,6.6,3.7,12.7,9.5,15.8l111.7,58.9c5.9,3.1,9.5,9.2,9.5,15.8v0c0,13.7-14.8,22.3-26.7,15.5l-77.6-44
		c-11.9-6.8-26.7,1.8-26.7,15.5v10.9c0,6.4,3.4,12.3,8.9,15.5l146.5,84.9c11.9,6.9,26.8-1.7,26.8-15.4l0.1-108.9
		c0-6.6-3.6-12.7-9.4-15.8L364,297.5c-5.8-3.1-9.5-9.2-9.4-15.9l0-3.6c0.1-13.5,14.5-22,26.3-15.6l78.9,42.3
		C471.7,311,486.1,302.4,486.1,288.9z"/>
	<path fill="#FFFFFF" d="M590.3,414.7l79.4-44.1c11.9-6.6,26.6,2,26.6,15.6v9.4c0,6.4-3.4,12.2-8.9,15.4l-148.3,86.6
		c-11.9,7-26.9-1.6-26.9-15.4L512,275c0-6.6,3.6-12.6,9.4-15.7l14.9-8c11.9-6.4,26.2,2.1,26.4,15.6l1.1,132.4
		C563.8,412.8,578.4,421.3,590.3,414.7z"/>
	<line fill="#FFFFFF" x1="624.1" y1="139.4" x2="654.5" y2="157.1"/>
	<path fill="#FFFFFF" d="M632.2,139.4l0,0.1c0.3,0,0.5,0,0.8,0C632.5,139.5,632.2,139.4,632.2,139.4z"/>
	<path fill="#EE4B54" d="M641.1,107.5L512.6,34.6c-7.2-4.1-16.1-3.9-23.1,0.5l-150,93c-14.9,9.3-14.1,31.2,1.5,39.4l146,76.1
		c9.7,5.1,21.3,4.8,30.8-0.6c0,0,60-34.3,84.4-45.7c0.8-0.4,1.7-0.8,2.5-1.3l59.5-36.9c14.6-9.1,14.2-30.5-0.8-39L641.1,107.5z"/>
	<path fill="#FFFFFF" d="M469.1,143.9c1-4.8,2.1-9.5,3.1-14.3c4.7-22.6,9.4-45.2,14.2-67.8c0.3-1.2,0.5-3,1.4-3.5
		c1.5-0.9,3.7-1.8,5.2-1.4c1.4,0.3,3,2.4,3.2,3.9c1,6.7,1.5,13.4,2.2,20.1c1.6,16.8,3.3,33.7,4.9,50.6c1.5,15.9,3,31.9,4.6,47.8
		c0.1,0.5,0.1,1.1,0.7,1.7c0.7-3.6,1.5-7.1,2.2-10.7c3.8-19.9,7.6-39.8,11.4-59.6c0.7-3.7,1.9-4.9,4.5-5c3.1-0.1,4.7,1.3,5.8,4.8
		c5.4,17.8,10.7,35.6,16.1,53.3c0.1,0.4,0.3,0.8,0.7,1.8c0.5-1.2,0.9-2,1.1-2.7c2.3-6.6,4.7-13.2,6.9-19.9c1-2.8,2.7-4.2,5.8-4.1
		c19.3,0.1,38.5,0,57.8,0c3.9,0,6,2.1,5.5,5.6c-0.3,2.3-1.6,3.9-4.1,4.1c-1.6,0.1-3.1,0.1-4.7,0.1c-16.2,0-32.4,0-48.6,0
		c-2.3,0-3.4,0.6-4.2,2.9c-3.4,10.2-7,20.3-10.5,30.4c-0.1,0.3-0.2,0.7-0.3,1.1c-0.9,2.6-2.6,4-5.4,3.9c-2.6-0.1-3.8-1.8-4.5-4.1
		c-4.7-15.8-9.5-31.5-14.3-47.2c-0.3-1-0.7-2.1-1.6-3.1c-1,4.9-1.9,9.8-2.9,14.7c-4.5,23.5-9,47-13.5,70.5c-0.7,3.5-2.3,5-5.3,4.9
		c-2.8-0.1-4.3-1.5-4.7-5.1c-1.3-12.7-2.5-25.4-3.7-38.1c-1.6-16.5-3.2-33-4.8-49.4c-1.1-11.1-2.1-22.3-3.2-33.9
		c-0.5,0.8-0.8,1.2-0.9,1.6c-4.7,22.4-9.4,44.9-14.1,67.3c-0.5,2.5-1.2,4.7-4.3,4.9c-3,0.2-4.8-1.1-5.8-4.4
		c-4.7-14.8-9.3-29.6-13.9-44.4c-0.3-0.9-0.6-1.7-1.1-3.3c-1,2.9-1.7,5.1-2.5,7.3c-2.1,6.4-4.1,12.8-6.2,19.3
		c-1.2,3.5-2.4,4.6-6,4.6c-17.4,0-34.8,0-52.2,0c-3.4,0-5.2-1.4-5.5-4.2c-0.4-3.3,1.6-5.5,5.3-5.5c12.3,0,24.6,0,36.9,0
		c3.5,0,7-0.1,10.6,0c1.6,0,2.4-0.5,2.9-2.1c3.8-12.1,7.8-24.1,11.7-36.1c0.7-2.2,1.8-4.1,4.4-4.4c2.9-0.4,4.7,1,5.8,4.4
		c3.6,11.5,7.1,22.9,10.7,34.4c0.9,3,1.9,6.1,2.9,9.1C468.8,143.9,468.9,143.9,469.1,143.9z"/>
	<g>
		<path fill="#FFFFFF" d="M605.8,241.1l0.1,6.3c0.1,6.9,7.5,11.1,13.4,7.6l58.6-34.6c2.7-1.6,4.4-4.5,4.4-7.7l0-6.3
			c0-6.9-7.5-11.2-13.4-7.7l-58.7,34.6C607.4,234.9,605.8,237.9,605.8,241.1z"/>
		<g>
			<path fill="#FFFFFF" d="M605.8,287.6l0.1,6.3c0.1,6.9,7.5,11.1,13.4,7.6l58.6-34.6c2.7-1.6,4.4-4.5,4.4-7.7l0-6.3
				c0-6.9-7.5-11.2-13.4-7.7l-58.7,34.6C607.4,281.4,605.8,284.4,605.8,287.6z"/>
		</g>
	</g>
	<rect x="-0.2" y="589.5" fill="none" width="1000.4" height="64.7"/>
	<text transform="matrix(1 0 0 1 21.5153 635.7295)" fill="#FFFFFF" font-family="'Roboto-Bold'" font-size="60.7526">Service du Patrimoine &amp; Logistique</text>
	<g>
		<path fill="#FFFFFF" d="M479.9,4.5L288.4,120.6c-15.5,9.4-24.9,26-24.9,43.9l0,229.3c0,17.9,9.4,34.5,24.9,43.9l191.5,116.2
			c12.4,7.5,27.8,7.5,40.2,0l191.6-116.1c15.5-9.4,24.9-26,24.9-43.9l0-229.3c0-17.9-9.4-34.5-24.9-43.9L520.1,4.5
			C507.8-3,492.3-3,479.9,4.5z M695.9,428.2L520.1,534.7c-12.4,7.5-27.8,7.5-40.2,0L304.1,428.1c-15.5-9.4-24.9-26-24.9-43.9
			l0-210.2c0-17.9,9.4-34.5,24.9-43.9L479.9,23.6c12.4-7.5,27.8-7.5,40.2,0l175.8,106.6c15.5,9.4,24.9,26,24.9,43.9l0,210.2
			C720.8,402.2,711.4,418.8,695.9,428.2z"/>
	</g>
	<path fill="#FFFFFF" d="M624.7,348.1H612c-3.4,0-6.2-2.8-6.2-6.2V236.6c0-3.4,2.8-6.2,6.2-6.2h12.7c3.4,0,6.2,2.8,6.2,6.2v105.2
		C630.9,345.3,628.1,348.1,624.7,348.1z"/>
	<path fill="#FFFFFF" d="M681.1,266.9h-12.7c-3.4,0-6.2-2.8-6.2-6.2v-57c0-3.4,2.8-6.2,6.2-6.2h12.7c3.4,0,6.2,2.8,6.2,6.2v57
		C687.3,264.1,684.6,266.9,681.1,266.9z"/>
</g>
</svg>
