<?xml version="1.0" encoding="utf-8"?>
<!-- Generator: Adobe Illustrator 18.1.1, SVG Export Plug-In . SVG Version: 6.00 Build 0)  -->
<svg version="1.1" id="Layer_1" xmlns="http://www.w3.org/2000/svg" xmlns:xlink="http://www.w3.org/1999/xlink" x="0px" y="0px"
	 viewBox="0 0 2844.7 588.3" enable-background="new 0 0 2844.7 588.3" xml:space="preserve">
<g>
	<path fill="#2C2B2D" d="M516.4,147.2V147L390,74.1L261.9,0l0,0.2L261.6,0L7.5,146.8L7,147v294.2l0.5,0.3l254.1,146.8v0l253.6-146.4
		c0.7-0.4,1.1-1.2,1.1-2V227.7l0.2,0.1v-80.4L516.4,147.2z M446.8,401L261.6,507.9h0L77.7,401.4c-0.7-0.4-1.1-1.2-1.1-2V188.3v-0.9
		l185-106.9l0.9,0.5l0,0.1l183.1,105.8c0.7,0.4,1.1,1.2,1.1,2L446.8,401L446.8,401z"/>
	<path fill="#2C2B2D" d="M261.8,200.8l-98.2,56.6c-0.6,0.4-1,1-1,1.7V372c0,0.7,0.4,1.4,1,1.7l23.9,13.8c1.3,0.8,3-0.2,3-1.7
		l0.1-76.1c0-1.5,1.7-2.5,3-1.7l66.2,38.2c0.6,0.4,1.4,0.4,2,0l0.1-0.1l68.3-39.3c1.3-0.8,3,0.2,3,1.7l0.1,77.3c0,1.5,1.7,2.5,3,1.7
		l23.8-13.8c0.6-0.4,1-1,1-1.7l-0.6-113.7c0-0.7-0.4-1.4-1-1.7l-97.2-56L261.8,200.8z M329.3,271.5c1.3,0.8,1.3,2.7,0,3.5l-67.6,39
		l0,0c-0.6,0.4-1.4,0.4-2,0l-66.3-38.2c-1.3-0.8-1.3-2.7,0-3.5l68.3-39.3l0.4-0.2L329.3,271.5z"/>
</g>
<g>
	<g>
		<path fill="#2C2B2D" d="M599.9,205.9H629c6.8,0,12.5,0.6,17.1,1.7c4.6,1.2,8.6,3.3,11.9,6.3c3.3,3,6.2,7.3,8.7,12.7
			c2.5,5.4,5.1,12.3,7.8,20.7l43.6,141.7h-44.9L659,342.8h-55.1l-12.8,46.3h-44.1L599.9,205.9z M612.7,310.2h36.1l-18.2-59.6h-1.3
			L612.7,310.2z"/>
		<path fill="#2C2B2D" d="M830.4,204.6c10.3,0,20.5,0.5,30.6,1.6c10.1,1.1,18.4,2.3,25,3.7c0,2.5-0.1,5.4-0.4,8.8
			c-0.3,3.4-0.7,6.8-1.2,10.2c-0.5,3.4-1.1,6.6-1.7,9.6c-0.6,3-1.3,5.5-2,7.5c-5.3-1.2-12.6-2.4-21.8-3.3c-9.2-1-18.7-1.5-28.5-1.5
			c-16.8,0-29,4.8-36.8,14.4c-7.8,9.6-11.6,23.8-11.6,42.5c0,18.7,3.8,32.9,11.4,42.5c7.6,9.6,19.3,14.4,35.2,14.4
			c2.5,0,5,0,7.6-0.1c2.6-0.1,5.1-0.2,7.6-0.4v-54.3h43.9v82.4c-6.8,2.5-15.4,4.6-25.8,6.4c-10.4,1.8-21.5,2.7-33.3,2.7
			c-14.6,0-27.6-1.9-39-5.6c-11.4-3.7-21-9.5-28.9-17.3c-7.8-7.8-13.9-17.5-18.1-29.3c-4.2-11.8-6.3-25.6-6.3-41.5
			c0-31.9,8.2-55.5,24.5-70.7C777.1,212.2,800.3,204.6,830.4,204.6z"/>
		<path fill="#2C2B2D" d="M925.4,389.1V207.2H970v71.1h64.5v-71.1h44.7v181.9h-44.7v-72.2H970v72.2H925.4z"/>
		<path fill="#2C2B2D" d="M1199.2,207.2c9.3,0,17.5,1.2,24.7,3.6s13.3,5.8,18.3,10.2c5,4.4,8.8,9.6,11.5,15.6c2.7,6.1,4,12.7,4,20.1
			c0,7.8-1.7,15.2-5.2,21.9c-3.5,6.8-8.6,12.3-15.4,16.6c9.3,4.1,16.3,10.1,21,18.1c4.7,7.9,7.1,16.4,7.1,25.5
			c0,7.3-1.2,14.1-3.5,20.5c-2.3,6.3-5.9,11.9-10.7,16.6c-4.8,4.7-10.8,8.4-18.1,11.1s-15.8,4-25.8,4c-10,0-18.5-1.5-25.7-4.5
			c-7.1-3-13.8-8.5-20.1-16.3v19h-44.7V207.2H1199.2z M1161.5,280h31c6.2,0,11.2-1.6,15-4.8c3.7-3.2,5.6-7.8,5.6-13.6
			c0-6.1-2-10.5-5.9-13.4c-3.9-2.8-9.1-4.3-15.5-4.3h-30.2V280z M1161.5,314.7v37.7h36.4c7.1,0,12.5-1.7,16.2-5.1
			c3.7-3.4,5.5-8.1,5.5-14.2c0-6.1-1.9-10.7-5.8-13.8c-3.8-3.1-8.9-4.7-15.1-4.7H1161.5z"/>
		<path fill="#2C2B2D" d="M1331.1,205.9h29.2c6.8,0,12.5,0.6,17.1,1.7c4.6,1.2,8.6,3.3,11.9,6.3c3.3,3,6.2,7.3,8.7,12.7
			c2.5,5.4,5.1,12.3,7.8,20.7l43.6,141.7h-44.9l-14.2-46.3h-55.1l-12.8,46.3h-44.1L1331.1,205.9z M1343.9,310.2h36.1l-18.2-59.6
			h-1.3L1343.9,310.2z"/>
		<path fill="#2C2B2D" d="M1473.6,207.2h44.7v143.3h83.2c0,2.3-0.1,5.2-0.3,8.7c-0.2,3.5-0.4,7-0.7,10.7c-0.3,3.7-0.7,7.2-1.2,10.6
			c-0.5,3.4-1.2,6.2-2.1,8.6h-123.6V207.2z"/>
		<path fill="#2C2B2D" d="M1676.6,298.2c0-15.9,2-29.7,6.2-41.5c4.1-11.8,9.9-21.5,17.4-29.3c7.5-7.8,16.5-13.5,27.1-17.3
			c10.6-3.7,22.4-5.6,35.4-5.6c13,0,24.8,1.9,35.4,5.6c10.6,3.7,19.7,9.5,27.1,17.3c7.5,7.8,13.2,17.5,17.2,29.3
			c4,11.8,6,25.6,6,41.5c0,16-2,29.9-6,41.6c-4,11.7-9.8,21.4-17.2,29.2c-7.5,7.8-16.5,13.5-27.1,17.3c-10.6,3.7-22.4,5.6-35.4,5.6
			c-13,0-24.8-1.9-35.4-5.6c-10.6-3.7-19.7-9.5-27.1-17.3c-7.5-7.8-13.3-17.5-17.4-29.2C1678.6,328.1,1676.6,314.2,1676.6,298.2z
			 M1722.3,298.2c0,18.7,3.4,32.9,10.2,42.5c6.8,9.6,16.8,14.4,30.2,14.4s23.4-4.8,30.1-14.3c6.7-9.5,10-23.8,10-42.7
			c0-18.7-3.3-32.9-10-42.5c-6.7-9.6-16.7-14.4-30.1-14.4s-23.4,4.8-30.2,14.4C1725.7,265.3,1722.3,279.4,1722.3,298.2z"/>
		<path fill="#2C2B2D" d="M1863.8,288c0-2.3,0-4.9,0.1-7.9c0.1-2.9,0.2-5.9,0.4-8.8c0.2-2.9,0.4-5.8,0.8-8.6
			c0.4-2.8,0.7-5.2,1.1-7.4h19v-19c2.5-2.7,5.5-5.3,9-7.8c3.5-2.5,7.1-4.8,11-7c3.8-2.1,7.8-4,11.8-5.6c4-1.6,7.7-2.8,11.1-3.5v46
			c8.6-1.2,16.4-2.1,23.5-2.5c7.1-0.4,14.7-0.7,22.7-0.7c0,3.2-0.1,6.2-0.4,8.8c-0.3,2.7-0.7,5.3-1.2,7.8c-0.5,2.5-1.2,5-1.9,7.6
			c-0.7,2.6-1.5,5.4-2.4,8.4c-6.2,0-12.4-0.1-18.6-0.3c-6.2-0.2-13.4-0.6-21.8-1.3v50c0,8.9,2.3,14.9,6.8,18.1
			c4.5,3.1,9.9,4.7,15.9,4.7c7.5,0,15.3-0.8,23.5-2.4c0,2.1-0.1,4.6-0.4,7.4c-0.3,2.8-0.7,5.5-1.2,8.3c-0.5,2.8-1.1,5.4-1.6,8
			c-0.5,2.6-1.1,4.8-1.6,6.6c-3.7,1.4-8.5,2.6-14.3,3.5c-5.8,0.9-11.4,1.3-16.7,1.3c-17.3,0-30.5-3.9-39.6-11.6
			c-9.1-7.8-13.6-20.3-13.6-37.6V288H1863.8z"/>
		<path fill="#2C2B2D" d="M1992.4,389.1V196.5h42.8v96.3c2.9-7.7,5.9-14.1,9.2-19.3c3.3-5.2,6.9-9.3,10.7-12.3
			c3.8-3,7.9-5.2,12.3-6.6c4.4-1.3,9-2,13.8-2c4.8,0,9.6,0.8,14.3,2.4c4.7,1.6,9,4.3,12.7,8.2c3.7,3.8,6.8,9,9.1,15.5
			c2.3,6.5,3.5,14.8,3.5,24.7v85.6H2078v-75.7c0-9.6-1-16.7-2.9-21.3c-2-4.5-6-6.8-12-6.8c-5.2,0-9.5,2.9-13.1,8.6
			c-3.6,5.7-6.4,13.3-8.6,22.9c-2.1,9.5-3.7,20.5-4.7,33c-1,12.5-1.5,25.6-1.5,39.3H1992.4z"/>
		<path fill="#2C2B2D" d="M2150.5,255.4h41.7c0.9,7.5,1.6,14.2,2.3,20.2c0.6,6,1,11.9,1.2,17.8c5.7-15.5,12.4-26.2,20.2-32
			c7.8-5.8,16.4-8.7,26.1-8.7c4.5,0,8.8,0.7,13.1,2c4.3,1.3,8.2,3.6,11.9,6.7c3.7,3.1,6.7,7.4,9.2,12.7c2.5,5.3,4.1,12,4.8,20.1
			c2.9-8,6-14.7,9.4-19.9c3.4-5.3,7-9.5,10.8-12.7c3.8-3.2,8-5.5,12.4-6.8c4.5-1.3,9.2-2,14.2-2c4.8,0,9.6,0.8,14.3,2.4
			c4.7,1.6,9,4.3,12.7,8.2c3.7,3.8,6.8,9,9.1,15.5c2.3,6.5,3.5,14.8,3.5,24.7v85.6h-42.8v-75.7c0-9.6-1-16.7-3.1-21.3
			c-2.1-4.5-6-6.8-11.9-6.8c-5.2,0-9.5,2.9-13.1,8.6c-3.6,5.7-6.5,13.3-8.7,22.9c-2.2,9.5-3.8,20.5-4.8,33
			c-1,12.5-1.5,25.6-1.5,39.3h-42.8v-75.7c0-9.6-1-16.7-2.9-21.3c-2-4.5-6-6.8-12-6.8c-5.2,0-9.5,2.9-13.1,8.6
			c-3.6,5.7-6.4,13.3-8.6,22.9c-2.1,9.5-3.7,20.5-4.7,33c-1,12.5-1.5,25.6-1.5,39.3h-42.8v-85.6c0-9.4-0.3-17.8-0.9-25.1
			C2151.6,271.1,2151,263.4,2150.5,255.4z"/>
		<path fill="#2C2B2D" d="M2393.6,332.4c0-14.8,2-27.3,6-37.4c4-10.2,9.6-18.4,16.7-24.6c7.1-6.2,15.6-10.7,25.4-13.5
			c9.8-2.8,20.5-4.1,32.1-4.1c8.2,0,16.4,0.3,24.5,0.8c8.1,0.5,16.4,1.2,24.7,1.9v133.7h-42.8v-36.9c-2.9,7.5-5.9,13.8-9.2,18.9
			c-3.3,5.1-6.8,9.2-10.6,12.3c-3.7,3.1-7.8,5.3-12,6.6c-4.3,1.2-8.7,1.9-13.4,1.9c-6.6,0-12.5-1.4-17.7-4.3
			c-5.2-2.8-9.5-6.9-13.1-12c-3.6-5.2-6.2-11.4-8-18.7C2394.5,349.4,2393.6,341.3,2393.6,332.4z M2452.4,359.1
			c4.3,0,8.1-1.7,11.4-5.1c3.3-3.4,6.2-8.2,8.7-14.6c2.5-6.3,4.7-13.9,6.7-22.9c2-8.9,3.7-18.9,5.3-30c-2.5-0.4-5.1-0.7-7.9-0.9
			c-2.8-0.3-5.5-0.4-8.2-0.4c-12.3,0-20.9,2.7-25.8,8.2c-4.9,5.4-7.4,13.2-7.4,23.4c0,5.7,0.4,11.1,1.1,16.2
			c0.7,5.1,1.8,9.6,3.3,13.5c1.5,3.9,3.3,7,5.5,9.2C2447.3,358,2449.7,359.1,2452.4,359.1z"/>
		<path fill="#2C2B2D" d="M2594.4,255.4c0.9,7.5,1.6,14.2,2.3,20.2c0.6,6,1,11.9,1.2,17.8c5.7-15.5,12.4-26.2,20.2-32
			c7.8-5.8,16.4-8.7,26.1-8.7c4.8,0,9.6,0.8,14.3,2.4c4.7,1.6,9,4.3,12.7,8.2c3.7,3.8,6.8,9,9.1,15.5c2.3,6.5,3.5,14.8,3.5,24.7
			v85.6H2641v-75.7c0-9.6-1-16.7-2.9-21.3c-2-4.5-6-6.8-12-6.8c-5.2,0-9.5,2.9-13.1,8.6c-3.6,5.7-6.4,13.3-8.6,22.9
			c-2.1,9.5-3.7,20.5-4.7,33c-1,12.5-1.5,25.6-1.5,39.3h-42.8v-85.6c0-9.4-0.3-17.8-0.9-25.1c-0.6-7.3-1.2-15-1.7-23H2594.4z"/>
		<path fill="#2C2B2D" d="M2710,322.2c0-11.8,1.8-22,5.3-30.8c3.6-8.7,8.5-16,14.8-21.8c6.3-5.8,13.9-10.1,22.6-12.8
			c8.7-2.8,18.3-4.1,28.6-4.1c20.3,0,36,5.7,46.9,17.1c11,11.4,16.4,28.3,16.4,50.5c-2.3,5.5-5.3,10.4-9.1,14.7
			c-17.3,0-32.5-0.1-45.5-0.4c-13-0.3-25-1.2-35.8-2.8c1.4,8.4,4.7,15,9.9,19.9c5.2,4.9,13.1,7.4,23.8,7.4c10.5,0,19.8-0.5,27.9-1.6
			c8.1-1.1,14.8-2.3,20.2-3.7c0,2.3-0.1,5-0.4,8c-0.3,3-0.6,6-1.1,9c-0.4,2.9-1,5.8-1.6,8.6c-0.6,2.8-1.3,5.1-2,7.1
			c-4.6,1.4-10.7,2.7-18.1,3.7c-7.4,1.1-15.7,1.6-25,1.6c-25.1,0-44.4-5.8-57.9-17.4C2716.7,362.8,2710,345.4,2710,322.2z
			 M2754.1,316.9c8.6-2.1,16.6-3.6,24.1-4.4c7.5-0.8,15.6-1.3,24.3-1.5c-0.9-8.6-3.1-15-6.7-19.3c-3.6-4.3-9-6.4-16.3-6.4
			c-7.7,0-13.7,2.7-18.1,8.2C2757.1,298.9,2754.6,306.7,2754.1,316.9z"/>
	</g>
</g>
</svg>
