<?xml version="1.0" encoding="utf-8"?>
<!-- Generator: Adobe Illustrator 18.1.1, SVG Export Plug-In . SVG Version: 6.00 Build 0)  -->
<svg version="1.1" id="Layer_1" xmlns="http://www.w3.org/2000/svg" xmlns:xlink="http://www.w3.org/1999/xlink" x="0px" y="0px"
	 viewBox="0 0 1000 589.1" enable-background="new 0 0 1000 589.1" xml:space="preserve">
<g>
	<g>
		<path fill="#2266BB" d="M25.7,565.4c0-1.7-0.6-3-1.7-4c-1.2-1-3.2-2-6.1-2.9c-5-1.5-8.8-3.3-11.4-5.3c-2.6-2-3.9-4.8-3.9-8.4
			c0-3.6,1.5-6.5,4.4-8.7c2.9-2.3,6.7-3.4,11.2-3.4c4.8,0,8.7,1.2,11.6,3.6c2.9,2.4,4.4,5.6,4.3,9.5l-0.1,0.2h-8.4
			c0-2.2-0.7-3.8-2-5c-1.3-1.2-3.2-1.7-5.5-1.7c-2.1,0-3.8,0.5-5,1.6c-1.2,1-1.8,2.4-1.8,4c0,1.5,0.6,2.7,1.9,3.6
			c1.3,0.9,3.5,1.9,6.6,3c4.8,1.4,8.4,3.1,10.9,5.3c2.5,2.2,3.8,5,3.8,8.6c0,3.7-1.5,6.7-4.4,8.8c-2.9,2.1-6.7,3.2-11.5,3.2
			c-4.7,0-8.7-1.2-12-3.5c-3.4-2.3-5-5.8-4.9-10.4l0.1-0.2h8.4c0,2.6,0.8,4.5,2.3,5.7c1.5,1.2,3.6,1.8,6.1,1.8
			c2.3,0,4.1-0.5,5.3-1.5C25.1,568.3,25.7,567,25.7,565.4z"/>
		<path fill="#2266BB" d="M54.1,577.4c-4.8,0-8.6-1.5-11.3-4.4c-2.7-3-4.1-6.8-4.1-11.4v-1.2c0-4.8,1.3-8.8,3.9-11.9
			c2.6-3.1,6.2-4.6,10.8-4.6c4.3,0,7.7,1.3,10,4c2.3,2.7,3.5,6.2,3.5,10.7v4.5H47.8l-0.1,0.2c0.1,2.2,0.8,4,2,5.4
			c1.2,1.4,3,2.1,5.4,2.1c1.9,0,3.6-0.2,5-0.6c1.4-0.4,2.8-1,4.2-1.8l2.4,5.4c-1.3,1.1-3,1.9-5.3,2.7
			C59.1,577,56.7,577.4,54.1,577.4z M53.6,550.6c-1.8,0-3.1,0.6-4,1.8c-0.9,1.2-1.5,2.8-1.7,4.8l0.1,0.1h10.6v-0.7
			c0-1.9-0.4-3.4-1.2-4.5C56.5,551.1,55.3,550.6,53.6,550.6z"/>
		<path fill="#2266BB" d="M89.1,551.9l-3.2-0.1c-1.3,0-2.4,0.3-3.2,0.8c-0.8,0.5-1.5,1.3-1.9,2.3v21.8h-8.7v-32.3h8.1l0.4,4.8
			c0.8-1.7,1.7-3,2.9-4c1.2-0.9,2.6-1.4,4.2-1.4c0.4,0,0.8,0,1.2,0.1c0.4,0.1,0.7,0.2,1.1,0.3L89.1,551.9z"/>
		<path fill="#2266BB" d="M105.8,564.7l0.6,3h0.2l0.6-3l5.3-20.3h9.1l-11,32.3h-8.3l-11-32.3h9.1L105.8,564.7z"/>
		<path fill="#2266BB" d="M134.5,536.7h-8.7v-6.5h8.7V536.7z M134.5,576.7h-8.7v-32.3h8.7V576.7z"/>
		<path fill="#2266BB" d="M155.2,570.7c1.5,0,2.7-0.5,3.6-1.4c0.9-0.9,1.3-2.1,1.3-3.6h7.9l0.1,0.2c0.1,3.3-1.1,6-3.6,8.2
			c-2.5,2.2-5.6,3.3-9.3,3.3c-4.8,0-8.5-1.5-11.1-4.6c-2.6-3.1-3.9-7-3.9-11.7v-0.9c0-4.7,1.3-8.6,3.9-11.7c2.6-3.1,6.3-4.6,11-4.6
			c3.9,0,7.1,1.1,9.5,3.4c2.4,2.3,3.6,5.3,3.5,9l-0.1,0.2h-7.9c0-1.7-0.4-3.1-1.3-4.2c-0.9-1.1-2.1-1.7-3.7-1.7
			c-2.2,0-3.8,0.9-4.8,2.7c-0.9,1.8-1.4,4.1-1.4,6.9v0.9c0,2.9,0.5,5.2,1.4,7C151.2,569.8,152.9,570.7,155.2,570.7z"/>
		<path fill="#2266BB" d="M187.2,577.4c-4.8,0-8.6-1.5-11.3-4.4c-2.7-3-4.1-6.8-4.1-11.4v-1.2c0-4.8,1.3-8.8,3.9-11.9
			c2.6-3.1,6.2-4.6,10.8-4.6c4.3,0,7.7,1.3,10,4c2.3,2.7,3.5,6.2,3.5,10.7v4.5h-19.2l-0.1,0.2c0.1,2.2,0.8,4,2,5.4
			c1.2,1.4,3,2.1,5.4,2.1c1.9,0,3.6-0.2,5-0.6c1.4-0.4,2.8-1,4.2-1.8l2.4,5.4c-1.3,1.1-3,1.9-5.3,2.7
			C192.2,577,189.8,577.4,187.2,577.4z M186.6,550.6c-1.8,0-3.1,0.6-4,1.8c-0.9,1.2-1.5,2.8-1.7,4.8l0.1,0.1h10.6v-0.7
			c0-1.9-0.4-3.4-1.2-4.5C189.6,551.1,188.3,550.6,186.6,550.6z"/>
		<path fill="#2266BB" d="M245.8,557.6h-16.1V570h19.2v6.7H221v-43.4h27.8v6.7h-19.1v10.9h16.1V557.6z"/>
		<path fill="#2266BB" d="M252.4,560.9c0-5.1,1.1-9.2,3.3-12.3c2.2-3.1,5.3-4.7,9.3-4.7c1.8,0,3.4,0.4,4.7,1.2
			c1.4,0.8,2.5,1.9,3.5,3.4l0.8-4h7.4v44.7h-8.7v-15.4c-1,1.2-2.1,2.1-3.4,2.7c-1.3,0.6-2.7,0.9-4.4,0.9c-4,0-7-1.5-9.2-4.4
			c-2.2-2.9-3.3-6.7-3.3-11.5V560.9z M261.1,561.5c0,2.8,0.5,5.1,1.4,6.7c1,1.7,2.5,2.5,4.7,2.5c1.3,0,2.4-0.2,3.3-0.7
			c0.9-0.5,1.7-1.2,2.2-2.1v-14.3c-0.6-1-1.3-1.7-2.2-2.2c-0.9-0.5-2-0.8-3.2-0.8c-2.1,0-3.7,1-4.7,2.9c-1,1.9-1.5,4.4-1.5,7.4
			V561.5z"/>
		<path fill="#2266BB" d="M308,572c-1,1.7-2.3,3.1-3.8,4c-1.5,0.9-3.3,1.4-5.3,1.4c-3.4,0-6.1-1.2-8-3.5c-1.9-2.3-2.9-5.9-2.9-10.7
			v-18.7h8.7v18.8c0,2.8,0.4,4.8,1.1,5.8c0.8,1,2,1.6,3.6,1.6c1.4,0,2.6-0.2,3.6-0.7c1-0.4,1.8-1.1,2.4-2v-23.5h8.7v32.3H309
			L308,572z"/>
		<path fill="#2266BB" d="M331.9,536.7h-8.7v-6.5h8.7V536.7z M331.9,576.7h-8.7v-32.3h8.7V576.7z"/>
		<path fill="#2266BB" d="M368.2,561.5c0,4.8-1.1,8.6-3.3,11.5s-5.3,4.4-9.2,4.4c-1.7,0-3.2-0.3-4.5-0.9c-1.3-0.6-2.4-1.5-3.4-2.8
			v15.5h-8.7v-44.7h7.8l0.5,3.8c1-1.4,2.1-2.5,3.4-3.3c1.3-0.8,2.9-1.1,4.7-1.1c4,0,7.1,1.6,9.3,4.7c2.2,3.1,3.3,7.2,3.3,12.3V561.5
			z M359.5,560.9c0-3-0.5-5.5-1.5-7.4c-1-1.9-2.6-2.8-4.7-2.8c-1.3,0-2.4,0.3-3.4,0.8s-1.7,1.3-2.2,2.3v14.1
			c0.5,0.9,1.3,1.6,2.2,2.1s2.1,0.7,3.4,0.7c2.1,0,3.7-0.8,4.6-2.5c1-1.7,1.5-3.9,1.5-6.7V560.9z"/>
		<path fill="#2266BB" d="M387.5,577.4c-4.8,0-8.6-1.5-11.3-4.4c-2.7-3-4.1-6.8-4.1-11.4v-1.2c0-4.8,1.3-8.8,3.9-11.9
			c2.6-3.1,6.2-4.6,10.8-4.6c4.3,0,7.7,1.3,10,4c2.3,2.7,3.5,6.2,3.5,10.7v4.5h-19.2l-0.1,0.2c0.1,2.2,0.8,4,2,5.4
			c1.2,1.4,3,2.1,5.4,2.1c1.9,0,3.6-0.2,5-0.6c1.4-0.4,2.8-1,4.2-1.8l2.4,5.4c-1.3,1.1-3,1.9-5.3,2.7
			C392.6,577,390.2,577.4,387.5,577.4z M387,550.6c-1.8,0-3.1,0.6-4,1.8c-0.9,1.2-1.5,2.8-1.7,4.8l0.1,0.1h10.6v-0.7
			c0-1.9-0.4-3.4-1.2-4.5C390,551.1,388.7,550.6,387,550.6z"/>
		<path fill="#2266BB" d="M413.6,544.5l0.4,4.3c1-1.6,2.3-2.8,3.9-3.6c1.6-0.8,3.4-1.3,5.4-1.3c2.1,0,3.8,0.5,5.3,1.4
			c1.5,0.9,2.6,2.3,3.3,4.1c1-1.7,2.3-3.1,3.9-4.1c1.6-1,3.5-1.5,5.6-1.5c3.2,0,5.7,1.1,7.5,3.4c1.8,2.3,2.8,5.7,2.8,10.3v19.2H443
			v-19.2c0-2.6-0.4-4.4-1.2-5.4c-0.8-1-2-1.5-3.6-1.5c-1.2,0-2.3,0.3-3.2,0.8c-0.9,0.5-1.6,1.3-2.2,2.3c0,0.4,0,0.7,0,1
			c0,0.3,0,0.5,0,0.8v21.2h-8.7v-19.2c0-2.5-0.4-4.3-1.2-5.4c-0.8-1-2-1.6-3.6-1.6c-1.2,0-2.2,0.2-3.1,0.7c-0.9,0.4-1.6,1.1-2.2,1.9
			v23.5h-8.7v-32.3H413.6z"/>
		<path fill="#2266BB" d="M472.4,577.4c-4.8,0-8.6-1.5-11.3-4.4c-2.7-3-4.1-6.8-4.1-11.4v-1.2c0-4.8,1.3-8.8,3.9-11.9
			c2.6-3.1,6.2-4.6,10.8-4.6c4.3,0,7.7,1.3,10,4c2.3,2.7,3.5,6.2,3.5,10.7v4.5H466l-0.1,0.2c0.1,2.2,0.8,4,2,5.4
			c1.2,1.4,3,2.1,5.4,2.1c1.9,0,3.6-0.2,5-0.6c1.4-0.4,2.8-1,4.2-1.8l2.4,5.4c-1.3,1.1-3,1.9-5.3,2.7
			C477.4,577,475,577.4,472.4,577.4z M471.8,550.6c-1.8,0-3.1,0.6-4,1.8c-0.9,1.2-1.5,2.8-1.7,4.8l0.1,0.1h10.6v-0.7
			c0-1.9-0.4-3.4-1.2-4.5C474.8,551.1,473.5,550.6,471.8,550.6z"/>
		<path fill="#2266BB" d="M498.3,544.5l0.4,4.6c1.1-1.7,2.4-2.9,4-3.8c1.6-0.9,3.3-1.4,5.3-1.4c3.3,0,5.8,1,7.6,3.1s2.7,5.4,2.7,9.9
			v19.8h-8.7V557c0-2.3-0.4-3.9-1.2-4.9c-0.8-1-2-1.4-3.6-1.4c-1.3,0-2.4,0.2-3.4,0.7c-1,0.5-1.8,1.2-2.4,2v23.4h-8.7v-32.3H498.3z"
			/>
		<path fill="#2266BB" d="M535.3,536.5v7.9h5.5v6.1h-5.5V567c0,1.3,0.3,2.1,0.8,2.7c0.5,0.5,1.2,0.8,2.1,0.8c0.5,0,0.9,0,1.2-0.1
			c0.3,0,0.7-0.1,1.2-0.3l0.7,6.3c-0.9,0.3-1.7,0.5-2.6,0.7s-1.7,0.2-2.7,0.2c-3,0-5.3-0.8-6.9-2.5c-1.6-1.7-2.4-4.3-2.4-7.8v-16.5
			h-4.7v-6.1h4.7v-7.9H535.3z"/>
		<path fill="#2266BB" d="M563.6,567.8c0-1-0.5-1.8-1.4-2.5c-0.9-0.7-2.6-1.3-5.1-1.8c-3.8-0.8-6.6-1.9-8.6-3.4
			c-2-1.5-2.9-3.6-2.9-6.2c0-2.8,1.2-5.1,3.5-7.1c2.3-1.9,5.5-2.9,9.4-2.9c4.1,0,7.3,1,9.8,2.9c2.5,1.9,3.6,4.4,3.5,7.3l-0.1,0.2
			h-8.4c0-1.3-0.4-2.3-1.3-3.2c-0.8-0.8-2-1.2-3.6-1.2c-1.4,0-2.5,0.3-3.3,1c-0.8,0.7-1.2,1.6-1.2,2.6c0,1,0.4,1.8,1.3,2.4
			c0.8,0.6,2.6,1.2,5.1,1.7c4,0.8,6.9,2,8.8,3.5c1.9,1.5,2.9,3.7,2.9,6.4c0,2.9-1.2,5.3-3.7,7.1c-2.5,1.8-5.8,2.8-9.8,2.8
			c-4.3,0-7.7-1.1-10.2-3.3c-2.5-2.2-3.7-4.7-3.6-7.4l0.1-0.2h8c0.1,1.7,0.6,3,1.7,3.8c1.1,0.8,2.5,1.2,4.2,1.2c1.6,0,2.8-0.3,3.7-1
			C563.1,569.8,563.6,568.9,563.6,567.8z"/>
		<path fill="#2266BB" d="M599,553.4c-1.3-1.8-2.3-3.4-2.9-4.9c-0.6-1.5-1-3-1-4.5c0-3.6,1.1-6.4,3.2-8.4c2.1-2,5-3,8.7-3
			c3.2,0,5.7,1,7.7,2.9c2,2,3,4.3,3,7.1c0,2.1-0.4,3.9-1.3,5.4c-0.8,1.5-2.1,2.9-3.7,4.2l-3,2.1l8.1,9.4c0.7-1.2,1.3-2.5,1.7-3.8
			c0.4-1.4,0.6-2.9,0.6-4.4h7c0,2.8-0.4,5.4-1.1,7.8c-0.7,2.3-1.8,4.4-3.3,6.2l6,7l-0.1,0.1h-9.7l-2.3-2.7c-1.7,1.1-3.4,1.9-5.2,2.5
			s-3.7,0.8-5.8,0.8c-4.3,0-7.8-1.1-10.4-3.4c-2.6-2.3-3.8-5.2-3.8-8.9c0-2.4,0.6-4.5,1.9-6.2S596.4,555.4,599,553.4z M606,570.7
			c1.1,0,2.1-0.1,3.2-0.4c1.1-0.3,2.1-0.7,3-1.2l-8.8-10.2l-0.3,0.2c-1.2,1-2,1.9-2.4,2.8c-0.4,0.9-0.7,1.8-0.7,2.7
			c0,1.8,0.5,3.2,1.6,4.4C602.7,570.1,604.2,570.7,606,570.7z M602.9,543.9c0,0.8,0.2,1.7,0.6,2.6c0.4,0.9,1,1.8,1.8,2.9l2.3-1.5
			c1.1-0.7,1.9-1.5,2.3-2.2c0.4-0.8,0.6-1.6,0.6-2.5c0-1-0.3-1.9-1-2.7s-1.6-1.1-2.7-1.1c-1.2,0-2.1,0.4-2.8,1.3
			C603.2,541.6,602.9,542.6,602.9,543.9z"/>
		<path fill="#2266BB" d="M671.3,565.3h0.2l11.2-32H694v43.4h-8.7v-29.7l-0.2,0l-10.7,29.7h-5.9L657.7,547l-0.2,0v29.7h-8.7v-43.4
			h11.4L671.3,565.3z"/>
		<path fill="#2266BB" d="M720.4,576.7c-0.3-0.7-0.6-1.5-0.8-2.3c-0.2-0.8-0.4-1.7-0.5-2.5c-0.9,1.6-2.1,2.9-3.6,3.9
			c-1.5,1-3.2,1.6-5.3,1.6c-3.4,0-6-0.9-7.8-2.6c-1.8-1.7-2.7-4.1-2.7-7.1c0-3.2,1.2-5.6,3.7-7.4c2.4-1.7,6-2.6,10.7-2.6h4.9v-2.6
			c0-1.6-0.4-2.8-1.2-3.6c-0.8-0.9-2-1.3-3.6-1.3c-1.4,0-2.5,0.3-3.3,1s-1.1,1.6-1.1,2.8h-8.4l-0.1-0.2c-0.1-2.7,1-5.1,3.6-7.1
			s5.8-3,9.9-3c3.9,0,7,1,9.4,2.9c2.4,1.9,3.6,4.7,3.6,8.4v13.3c0,1.5,0.1,2.9,0.3,4.3c0.2,1.3,0.6,2.7,1.1,4H720.4z M712.4,570.9
			c1.5,0,2.9-0.4,4.1-1.1c1.2-0.8,2-1.6,2.4-2.6v-4.6H714c-1.8,0-3.2,0.5-4.2,1.4c-0.9,0.9-1.4,2-1.4,3.4c0,1.1,0.4,2,1.1,2.6
			C710.2,570.6,711.2,570.9,712.4,570.9z"/>
		<path fill="#2266BB" d="M743.3,536.7h-8.7v-6.5h8.7V536.7z M743.3,576.7h-8.7v-32.3h8.7V576.7z"/>
		<path fill="#2266BB" d="M758.5,544.5l0.4,4.6c1.1-1.7,2.4-2.9,4-3.8c1.6-0.9,3.3-1.4,5.3-1.4c3.3,0,5.8,1,7.6,3.1
			c1.8,2.1,2.7,5.4,2.7,9.9v19.8h-8.7V557c0-2.3-0.4-3.9-1.2-4.9c-0.8-1-2-1.4-3.6-1.4c-1.3,0-2.4,0.2-3.4,0.7c-1,0.5-1.8,1.2-2.4,2
			v23.4h-8.7v-32.3H758.5z"/>
		<path fill="#2266BB" d="M795.4,536.5v7.9h5.5v6.1h-5.5V567c0,1.3,0.3,2.1,0.8,2.7c0.5,0.5,1.2,0.8,2.1,0.8c0.5,0,0.9,0,1.2-0.1
			c0.3,0,0.7-0.1,1.2-0.3l0.7,6.3c-0.9,0.3-1.7,0.5-2.6,0.7c-0.8,0.1-1.7,0.2-2.7,0.2c-3,0-5.3-0.8-6.9-2.5
			c-1.6-1.7-2.4-4.3-2.4-7.8v-16.5H782v-6.1h4.7v-7.9H795.4z"/>
		<path fill="#2266BB" d="M820.3,577.4c-4.8,0-8.6-1.5-11.3-4.4c-2.7-3-4.1-6.8-4.1-11.4v-1.2c0-4.8,1.3-8.8,3.9-11.9
			c2.6-3.1,6.2-4.6,10.8-4.6c4.3,0,7.7,1.3,10,4c2.3,2.7,3.5,6.2,3.5,10.7v4.5h-19.2l-0.1,0.2c0.1,2.2,0.8,4,2,5.4
			c1.2,1.4,3,2.1,5.4,2.1c1.9,0,3.6-0.2,5-0.6c1.4-0.4,2.8-1,4.2-1.8l2.4,5.4c-1.3,1.1-3,1.9-5.3,2.7
			C825.3,577,822.9,577.4,820.3,577.4z M819.7,550.6c-1.8,0-3.1,0.6-4,1.8c-0.9,1.2-1.5,2.8-1.7,4.8l0.1,0.1h10.6v-0.7
			c0-1.9-0.4-3.4-1.2-4.5C822.7,551.1,821.4,550.6,819.7,550.6z"/>
		<path fill="#2266BB" d="M846.2,544.5l0.4,4.6c1.1-1.7,2.4-2.9,4-3.8c1.6-0.9,3.3-1.4,5.3-1.4c3.3,0,5.8,1,7.6,3.1
			c1.8,2.1,2.7,5.4,2.7,9.9v19.8h-8.7V557c0-2.3-0.4-3.9-1.2-4.9c-0.8-1-2-1.4-3.6-1.4c-1.3,0-2.4,0.2-3.4,0.7c-1,0.5-1.8,1.2-2.4,2
			v23.4h-8.7v-32.3H846.2z"/>
		<path fill="#2266BB" d="M891.8,576.7c-0.3-0.7-0.6-1.5-0.8-2.3c-0.2-0.8-0.4-1.7-0.5-2.5c-0.9,1.6-2.1,2.9-3.6,3.9
			c-1.5,1-3.2,1.6-5.3,1.6c-3.4,0-6-0.9-7.8-2.6c-1.8-1.7-2.7-4.1-2.7-7.1c0-3.2,1.2-5.6,3.7-7.4c2.4-1.7,6-2.6,10.7-2.6h4.9v-2.6
			c0-1.6-0.4-2.8-1.2-3.6c-0.8-0.9-2-1.3-3.6-1.3c-1.4,0-2.5,0.3-3.3,1s-1.1,1.6-1.1,2.8h-8.4l-0.1-0.2c-0.1-2.7,1-5.1,3.6-7.1
			c2.5-2,5.8-3,9.9-3c3.9,0,7,1,9.4,2.9c2.4,1.9,3.6,4.7,3.6,8.4v13.3c0,1.5,0.1,2.9,0.3,4.3c0.2,1.3,0.6,2.7,1.1,4H891.8z
			 M883.8,570.9c1.5,0,2.9-0.4,4.1-1.1c1.2-0.8,2-1.6,2.4-2.6v-4.6h-4.9c-1.8,0-3.2,0.5-4.2,1.4c-0.9,0.9-1.4,2-1.4,3.4
			c0,1.1,0.4,2,1.1,2.6C881.6,570.6,882.5,570.9,883.8,570.9z"/>
		<path fill="#2266BB" d="M913.5,544.5l0.4,4.6c1.1-1.7,2.4-2.9,4-3.8c1.6-0.9,3.3-1.4,5.3-1.4c3.3,0,5.8,1,7.6,3.1
			c1.8,2.1,2.7,5.4,2.7,9.9v19.8h-8.7V557c0-2.3-0.4-3.9-1.2-4.9c-0.8-1-2-1.4-3.6-1.4c-1.3,0-2.4,0.2-3.4,0.7c-1,0.5-1.8,1.2-2.4,2
			v23.4h-8.7v-32.3H913.5z"/>
		<path fill="#2266BB" d="M953.5,570.7c1.5,0,2.7-0.5,3.6-1.4c0.9-0.9,1.3-2.1,1.3-3.6h7.9l0.1,0.2c0.1,3.3-1.1,6-3.6,8.2
			c-2.5,2.2-5.6,3.3-9.3,3.3c-4.8,0-8.5-1.5-11.1-4.6c-2.6-3.1-3.9-7-3.9-11.7v-0.9c0-4.7,1.3-8.6,3.9-11.7c2.6-3.1,6.3-4.6,11-4.6
			c3.9,0,7.1,1.1,9.5,3.4c2.4,2.3,3.6,5.3,3.5,9l-0.1,0.2h-7.9c0-1.7-0.4-3.1-1.3-4.2c-0.9-1.1-2.1-1.7-3.7-1.7
			c-2.2,0-3.8,0.9-4.8,2.7c-0.9,1.8-1.4,4.1-1.4,6.9v0.9c0,2.9,0.5,5.2,1.4,7C949.6,569.8,951.2,570.7,953.5,570.7z"/>
		<path fill="#2266BB" d="M985.5,577.4c-4.8,0-8.6-1.5-11.3-4.4c-2.7-3-4.1-6.8-4.1-11.4v-1.2c0-4.8,1.3-8.8,3.9-11.9
			c2.6-3.1,6.2-4.6,10.8-4.6c4.3,0,7.7,1.3,10,4c2.3,2.7,3.5,6.2,3.5,10.7v4.5h-19.2l-0.1,0.2c0.1,2.2,0.8,4,2,5.4
			c1.2,1.4,3,2.1,5.4,2.1c1.9,0,3.6-0.2,5-0.6c1.4-0.4,2.8-1,4.2-1.8l2.4,5.4c-1.3,1.1-3,1.9-5.3,2.7
			C990.5,577,988.1,577.4,985.5,577.4z M985,550.6c-1.8,0-3.1,0.6-4,1.8c-0.9,1.2-1.5,2.8-1.7,4.8l0.1,0.1h10.6v-0.7
			c0-1.9-0.4-3.4-1.2-4.5C987.9,551.1,986.7,550.6,985,550.6z"/>
	</g>
	<g>
		<g>
			<g>
				<g>
					<rect x="554.4" y="228.2" fill="#2266BB" width="85.1" height="83.3"/>
					<rect x="359.3" y="228.2" fill="#2266BB" width="85.1" height="83.3"/>
					<rect x="457.1" y="131.5" fill="#2266BB" width="85.1" height="83.3"/>
				</g>
				<g>
					<rect x="457.1" y="325.7" fill="#2266BB" width="85.1" height="83.3"/>
				</g>
			</g>
			<path fill="#2266BB" d="M438.4,228l-0.2,82.9c9.3,4.5,16.2,13.3,18.9,23l84.8-1c3.1-9.3,11.2-17.8,19.9-22.1L561,228
				c-8.7-4.2-15.7-11.5-18.8-20.8l-84.7,1.1c-2.8,9.7-10.8,15.2-20.1,19.7"/>
		</g>
		<g>
			<path fill="#FFFFFF" d="M474.8,305.5c0,4.7,0.1,9.3,0.1,13.7c1.4-0.7,2.8-1.5,4.4-2c5.7-2.1,11.6,0.5,14.5,5.8
				c0.7,1.2,1.1,2.6,1.7,3.9c0.1,0.3,0.5,0.7,0.7,0.7c3.2,0,6.4,0,9.5,0c0.6-2.1,1.2-4.1,1.9-6c0.7-1.9,1.6-3.8,3.3-5.1
				c1.6-1.3,3.5-1.5,5.2-0.7c1.7,0.8,3.4,1.8,4.9,3c2.8,2.4,5.3,5.3,7.5,8.3c1.1,1.5,2.2,2.9,3.3,4.5c1.4-0.9,2.8-1.8,4.2-2.8
				c-0.5-1-1-2.1-1.5-3.1c-3.1-5.7-6.8-11-11.8-15.2c-5.5-4.6-11.8-7.3-18.9-8c-4-0.4-7.9-0.3-11.9,0.4c-0.3,0.1-0.7,0.2-0.9,0.4
				c-3.9,4.5-8.7,4.7-13.9,3C476.3,306.1,475.6,305.8,474.8,305.5z"/>
			<path fill="#FFFFFF" d="M493.9,418.6c4.6-1.5,9.3-1.7,13.9,0c-0.1-26.1-0.2-52.1-0.2-78.1c-4.6,0-9.3-0.1-13.9-0.1
				C493.8,366.5,493.8,392.5,493.9,418.6z"/>
			<path fill="#FFFFFF" d="M463.3,321.4c3.3,0,6.8-0.1,10.3-0.1c0-5.8-0.1-11.8-0.1-17.8c-3.4,0-6.9,0-10.3,0
				C463.2,309.4,463.3,315.4,463.3,321.4z"/>
			<path fill="#FFFFFF" d="M507.6,336.6c0-2.4,0-4.7,0-7.2c-4.6,0-9.2,0-13.8,0c0.1,2.4,0.2,4.8,0.3,7.1
				C498.4,336.6,503,336.6,507.6,336.6z"/>
		</g>
		<path fill="#FFFFFF" d="M595,272.2c-14.6-0.1-28.9-0.3-43.2-0.4c-1.5,0-2.9,0.3-4.4,0.6c-7.9,1.6-8.3,1.6-16.4-1
			c0-1.3,0.1-2.6,0.1-4.1c4.9-1.2,9.7-3,15.1-1.2c3.1,1,6.6,1.1,9.9,1.1c12.5,0.1,25.1,0.1,37.6,0.1c0.4,0,0.7,0,1.7-0.1
			c-0.2-0.9-0.4-1.8-0.4-2.7c0-2.9,1.8-4.3,4.1-2.7c3.9,2.6,7.7,1.9,11.7,0.5c1.6-0.6,3.3-0.8,5-0.9c9.9-0.1,19.7,0,29.6,0
			c3.8,0,5.3,1.5,5.3,5.3c0,2.2,0.1,4.3,0,6.5c-0.1,2.8-1.7,4.5-4.5,4.5c-10.5,0-21.1,0.1-31.6-0.1c-2,0-4-0.9-6-1.5
			c-2.9-0.8-5.6-1-8.3,0.6c-3.6,2.2-5.2,1.2-5.3-2.9C595.1,273.2,595,272.6,595,272.2z"/>
		<g>
			<g>
				<path fill="#FFFFFF" d="M509,214.7c4.1-2,8-3.9,12.2-5.9c3.4,7.3,2.6,14.3-0.5,21.1c-0.3,0.8-1.2,1.3-2,2.1
					C515.2,226.2,514.4,219.3,509,214.7z"/>
				<path fill="#FFFFFF" d="M508,208.6c-0.6-3.3-1.4-6.6-1.8-9.9c-0.1-0.5,1-1.2,2-2.2c0.7,3.8,1.2,6.8,1.9,9.7
					C510.4,207.7,509.9,208.4,508,208.6z"/>
				<path fill="#FFFFFF" d="M507,208.2c0.1,0.6-0.8,1.3-1.3,2c-0.2-0.1-0.5-0.2-0.7-0.3c-0.6-3.2-1.3-6.5-1.8-9.7
					c-0.1-0.6,0.8-1.3,1.2-2c0.3,0.1,0.5,0.2,0.8,0.3C505.9,201.7,506.6,204.9,507,208.2z"/>
				<path fill="#FFFFFF" d="M502,211.4c-0.6-3.3-1.3-6.6-1.8-9.8c-0.1-0.6,0.9-1.3,1.4-1.9c1.2,3.3,1.8,6.4,2.4,9.3
					C504.4,210.6,503.8,211.2,502,211.4z"/>
				<path fill="#FFFFFF" d="M511,207.2c-0.3-2-0.6-3.7-0.9-5.4C513.1,204,513.4,206.3,511,207.2z"/>
				<path fill="#FFFFFF" d="M499.3,201.2c0.3,1.9,0.6,3.6,0.9,5.4C497,203.9,496.8,202.1,499.3,201.2z"/>
				<path fill="#FFFFFF" d="M505.7,165.4L505.7,165.4l-14.5,0.2c0.2,0.6,0.2,1.3,0.2,2.2c0.1,5.7,0.4,11.4,0,17.1
					c-0.4,5.8-3.4,10.6-7,15.1c-2.4,3-4.8,5.9-7.1,8.9c-2.5,3.3-2.9,6.6-1.4,10.7c5.2,14,6.6,13.1,19.4,19.5
					c0.8,0.4,1.8,0.6,2.7,0.6c3.2,0,4.1-1.7,2.7-4.5c-1.8-3.5-3.6-7-5.4-10.6c-1.7-3.5-1.5-3.9,2-5.6c8.1-3.9,16.2-7.8,24.3-11.7
					c2.7-1.3,2.9-2,1.2-4.5c-1.2-1.8-2.8-3.4-4.2-5.1c-3.2-3.6-6.6-7.1-9.5-10.9c-2.8-3.6-3.9-7.9-3.6-12.5
					C505.9,171.5,505.7,168.7,505.7,165.4z M511.3,197c1.2,2.4,2.4,4.8,3.5,7.3c0.7,1.4,0.3,2.5-1.1,3.1c-3.8,1.9-7.6,3.7-11.5,5.6
					c-1.5,0.7-2.6,0.4-3.3-1.1c-1.2-2.4-2.3-4.8-3.5-7.3c-0.2-0.4-0.3-0.9-0.5-1.6c0.6-0.5,1.1-1.2,1.8-1.6
					c3.7-1.9,7.5-3.7,11.2-5.5C509.5,195.1,510.6,195.5,511.3,197z"/>
			</g>
			<polyline fill="#FFFFFF" points="505.7,167.9 505.1,116.2 490.9,116.2 491.2,165.6 			"/>
		</g>
		<g>
			<g>
				<path fill="#FFFFFF" d="M460.7,252.2c-0.4,0-0.7,0-1.1,0c-5.7,0.1-11.3,0.3-17,0.3c-1.6,0-2,0.5-2,2c0,9.9-0.2,19.7-0.3,29.6
					c0,3.4,0.1,3.5,3.4,3.5c4.8,0,9.5,0,14.3,0c3.7,0,3.7,0,3.3-3.7c-0.1-1.3-0.5-1.6-1.8-1.4c-1.9,0.3-3.9,0.3-5.8,0.5
					c-0.8,0.1-1.4,0-1.6-1c-0.1-1.1,0.6-1.3,1.3-1.4c2-0.3,4-0.6,6-0.8c1.3-0.1,1.7-0.7,1.7-1.9c0-2.2,0-4.4,0.1-6.5
					c0.1-1.2-0.3-1.6-1.5-1.5c-2.4,0.2-4.9,0.2-7.4,0.5c-1.3,0.1-1.5-0.5-1.5-1.5c-0.1-1.3,0.6-1.3,1.5-1.4c2.2-0.1,4.5-0.3,6.7-0.3
					c1.1,0,1.7-0.3,1.7-1.5c0.1-4.1,0.3-8.1,0.5-12.2C461.3,253,461.4,252.4,460.7,252.2z"/>
				<path fill="#FFFFFF" d="M435.7,252c-2-0.9-4.3,0.5-4.3,2.9c0,3.8,0,7.7,0,11.5c0,6,0,12,0,18c0,3.8,0,3.7,3.7,3.6
					c1.2,0,1.5-0.5,1.5-1.6c-0.1-11-0.2-22.1-0.3-33.1C436.4,252.9,436.5,252.3,435.7,252z"/>
				<path fill="#FFFFFF" d="M428.6,252.5c-1.3-0.5-2.4,0.2-2.4,1.8c-0.3,10.6-0.5,21.2-0.9,31.8c-0.1,2.7,1.8,1.6,2.8,1.8
					c1.6,0.4,1.3-1,1.3-1.9c0.1-10.6,0.1-21.2,0.2-31.8C429.5,253.5,429.7,252.8,428.6,252.5z"/>
				<path fill="#FFFFFF" d="M410.7,262.4c-1,0.9-1.9,1.3-3.2,1.1c-1.8-0.2-3.7-0.3-5.5-0.5l0,0l-0.3,0c0,0-0.1,0-0.1,0l0,0
					l-23.6,0.4l1.4,12.3l21.9,1.5l0,0c0.2,0,0.4,0,0.6,0l0.3,0l0,0c1.6,0,3.2,0,4.7,0c1.4,0,2.5,0.4,3.5,1.4c3,3.1,6.4,5.7,10,8
					c0.7,0.5,1.5,1.3,2.4,0.7c0.8-0.5,0.5-1.5,0.5-2.3c0.1-4.9,0.1-9.8,0.1-14.7c0-6.4,0.1-12.7,0.1-19.5c-0.7,0.5-1,0.7-1.3,0.9
					C418.1,255,414.5,258.9,410.7,262.4z M381,273.4c-0.9,0-1.6-0.8-1.6-1.7l0.1-3.9c0-0.9,0.8-1.6,1.6-1.6c0.9,0,1.6,0.8,1.6,1.7
					l-0.1,3.9C382.6,272.7,381.9,273.4,381,273.4z M387.8,269.8l0,0.3c0,0.9-0.8,1.6-1.6,1.6c-0.9,0-1.6-0.8-1.6-1.7l0-0.3
					c0-0.9,0.8-1.6,1.6-1.6C387.1,268.2,387.8,268.9,387.8,269.8z"/>
			</g>
			<polyline fill="#FFFFFF" points="379.4,275.7 378,263.4 356,263.4 356,275.7 379.9,275.8 			"/>
		</g>
		<path fill="#30BC75" d="M651.8,204.8H566c-1,0-1.8-0.8-1.8-1.8v-84.3v-8c0-1-0.8-1.8-1.8-1.8h-7.6H444.6h-7.4
			c-1,0-1.8,0.8-1.8,1.8v8v84.3c0,1-0.8,1.8-1.8,1.8h-17.6H347h-7c-1,0-1.8,0.8-1.8,1.8v7.5v108v7.1c0,1,0.8,1.8,1.8,1.8h7h69.1
			h17.6c1,0,1.8,0.8,1.8,1.8v89.1v8c0,1,0.8,1.8,1.8,1.8h0h7.4h110.3h7.6l0,0c1,0,1.8-0.8,1.8-1.8v-8v-89.1c0-1,0.8-1.8,1.8-1.8
			h85.8h7c1,0,1.8-0.8,1.8-1.8v-7.1v-108v-7.5c0-1-0.8-1.8-1.8-1.8H651.8z M651.8,320.3c0,1-0.8,1.8-1.8,1.8h-85.8h-7.6
			c-1,0-1.8,0.8-1.8,1.8v7.1v19.7V420c0,1-0.8,1.8-1.8,1.8H446.4c-1,0-1.8-0.8-1.8-1.8v-69.3V331v-7.1c0-1-0.8-1.8-1.8-1.8h-7.4
			h-7.3h-12h-67.4c-1,0-1.8-0.8-1.8-1.8V215.9c0-1,0.8-1.8,1.8-1.8h67.4h12h7.3h7.4c1,0,1.8-0.8,1.8-1.8v-7.5v-84.3
			c0-1,0.8-1.8,1.8-1.8h106.7c1,0,1.8,0.8,1.8,1.8v84.3v7.5c0,1,0.8,1.8,1.8,1.8h7.6H650c1,0,1.8,0.8,1.8,1.8V320.3z"/>
		<g>
			<rect x="294.1" y="449.6" fill="#30BC75" width="411.1" height="8.6"/>
			<polygon fill="#30BC75" points="415.2,87 415.2,190.9 428.9,190.9 428.9,97 672.9,53.7 672.9,190.9 672.9,423.2 672.9,449.6 
				686.6,449.6 686.6,38.8 			"/>
			<polygon fill="#30BC75" points="324.1,325.7 325,321.2 325,19.5 463.2,45.9 463.1,71.2 475,68.8 475.1,38.3 312.6,7.2 
				312.6,449.6 324.1,449.6 			"/>
			<rect x="415.2" y="338.8" fill="#30BC75" width="13.6" height="110.7"/>
			<rect x="463.1" y="436.2" fill="#30BC75" width="12" height="19"/>
		</g>
	</g>
</g>
</svg>
