<?xml version="1.0" encoding="utf-8"?>
<!-- Generator: Adobe Illustrator 18.1.1, SVG Export Plug-In . SVG Version: 6.00 Build 0)  -->
<svg version="1.1" id="Layer_1" xmlns="http://www.w3.org/2000/svg" xmlns:xlink="http://www.w3.org/1999/xlink" x="0px" y="0px"
	 viewBox="0 0 1000 653.1" enable-background="new 0 0 1000 653.1" xml:space="preserve">
<g>
	<g>
		<g>
			<path fill="#2266BB" d="M23.4,629.5c0-1.3-0.5-2.4-1.4-3.2c-0.9-0.8-2.5-1.5-4.8-2.2c-3.9-1.2-6.9-2.6-8.9-4.2
				c-2-1.6-3.1-3.8-3.1-6.6c0-2.8,1.1-5.1,3.4-6.8c2.3-1.8,5.2-2.7,8.8-2.7c3.8,0,6.8,1,9.1,2.9c2.3,1.9,3.4,4.4,3.3,7.5l0,0.1h-6.6
				c0-1.7-0.5-3-1.5-3.9c-1-0.9-2.5-1.4-4.3-1.4c-1.7,0-3,0.4-3.9,1.2c-0.9,0.8-1.4,1.8-1.4,3.1c0,1.2,0.5,2.1,1.5,2.8
				c1,0.7,2.7,1.5,5.2,2.4c3.7,1.1,6.6,2.4,8.6,4.2c2,1.7,2.9,4,2.9,6.8c0,2.9-1.1,5.2-3.4,6.9c-2.3,1.7-5.3,2.5-9,2.5
				c-3.7,0-6.8-0.9-9.4-2.7c-2.6-1.8-3.9-4.5-3.8-8.2l0-0.1h6.6c0,2,0.6,3.5,1.8,4.4c1.2,1,2.8,1.4,4.8,1.4c1.8,0,3.2-0.4,4.2-1.1
				C22.9,631.8,23.4,630.8,23.4,629.5z"/>
			<path fill="#2266BB" d="M45.7,638.9c-3.8,0-6.7-1.2-8.8-3.5c-2.1-2.3-3.2-5.3-3.2-9v-0.9c0-3.8,1-6.9,3.1-9.3
				c2.1-2.4,4.9-3.6,8.5-3.6c3.4,0,6,1,7.8,3.1c1.8,2.1,2.7,4.9,2.7,8.4v3.5H40.7l-0.1,0.1c0.1,1.7,0.6,3.1,1.6,4.2
				c0.9,1.1,2.3,1.6,4.2,1.6c1.5,0,2.8-0.2,3.9-0.5c1.1-0.3,2.2-0.8,3.3-1.4l1.8,4.2c-1,0.8-2.4,1.5-4.1,2.1
				C49.6,638.6,47.8,638.9,45.7,638.9z M45.3,617.9c-1.4,0-2.4,0.5-3.2,1.4c-0.7,0.9-1.2,2.2-1.3,3.8l0,0.1h8.3v-0.5
				c0-1.5-0.3-2.6-0.9-3.5C47.6,618.3,46.6,617.9,45.3,617.9z"/>
			<path fill="#2266BB" d="M73.1,619l-2.5-0.1c-1,0-1.8,0.2-2.5,0.6c-0.7,0.4-1.2,1-1.5,1.8v17.1h-6.8v-25.3h6.3l0.3,3.7
				c0.6-1.3,1.4-2.4,2.3-3.1c0.9-0.7,2-1.1,3.3-1.1c0.3,0,0.7,0,0.9,0.1c0.3,0.1,0.6,0.1,0.9,0.2L73.1,619z"/>
			<path fill="#2266BB" d="M86.2,629l0.4,2.3h0.1l0.5-2.3l4.2-15.9h7.1L90,638.4h-6.5l-8.6-25.3H82L86.2,629z"/>
			<path fill="#2266BB" d="M108.8,607.1h-6.8v-5.1h6.8V607.1z M108.8,638.4h-6.8v-25.3h6.8V638.4z"/>
			<path fill="#2266BB" d="M124.9,633.7c1.2,0,2.1-0.4,2.8-1.1c0.7-0.7,1.1-1.7,1.1-2.8h6.2l0,0.1c0.1,2.6-0.9,4.7-2.9,6.4
				c-2,1.7-4.4,2.6-7.3,2.6c-3.7,0-6.6-1.2-8.7-3.6c-2-2.4-3.1-5.5-3.1-9.2v-0.7c0-3.7,1-6.8,3.1-9.2c2-2.4,4.9-3.6,8.6-3.6
				c3.1,0,5.6,0.9,7.5,2.7c1.9,1.8,2.8,4.1,2.7,7l0,0.1h-6.2c0-1.3-0.3-2.4-1-3.3c-0.7-0.9-1.7-1.3-2.9-1.3c-1.8,0-3,0.7-3.8,2.1
				c-0.7,1.4-1.1,3.2-1.1,5.4v0.7c0,2.2,0.4,4.1,1.1,5.5C121.9,633,123.1,633.7,124.9,633.7z"/>
			<path fill="#2266BB" d="M150,638.9c-3.8,0-6.7-1.2-8.8-3.5c-2.1-2.3-3.2-5.3-3.2-9v-0.9c0-3.8,1-6.9,3.1-9.3
				c2.1-2.4,4.9-3.6,8.5-3.6c3.4,0,6,1,7.8,3.1c1.8,2.1,2.7,4.9,2.7,8.4v3.5h-15.1l-0.1,0.1c0.1,1.7,0.6,3.1,1.6,4.2
				c0.9,1.1,2.3,1.6,4.2,1.6c1.5,0,2.8-0.2,3.9-0.5c1.1-0.3,2.2-0.8,3.3-1.4l1.8,4.2c-1,0.8-2.4,1.5-4.1,2.1
				C154,638.6,152.1,638.9,150,638.9z M149.6,617.9c-1.4,0-2.4,0.5-3.2,1.4c-0.7,0.9-1.2,2.2-1.3,3.8l0,0.1h8.3v-0.5
				c0-1.5-0.3-2.6-0.9-3.5C151.9,618.3,151,617.9,149.6,617.9z"/>
			<path fill="#2266BB" d="M183.9,638.4H177v-34.1h6.8V638.4z"/>
			<path fill="#2266BB" d="M196.4,613.1l0.3,3.6c0.8-1.3,1.9-2.3,3.1-3c1.2-0.7,2.6-1.1,4.1-1.1c2.6,0,4.6,0.8,6,2.5
				c1.4,1.6,2.2,4.2,2.2,7.8v15.5h-6.9v-15.5c0-1.8-0.3-3.1-0.9-3.8c-0.6-0.8-1.6-1.1-2.8-1.1c-1,0-1.9,0.2-2.7,0.6
				c-0.8,0.4-1.4,0.9-1.9,1.6v18.3H190v-25.3H196.4z"/>
			<path fill="#2266BB" d="M219,638.4v-20.5h-3.8v-4.8h3.8v-2.8c0-2.8,0.8-5,2.5-6.6c1.6-1.5,3.9-2.3,6.9-2.3c0.6,0,1.2,0,1.8,0.1
				c0.6,0.1,1.3,0.2,2,0.4l-0.6,5.1c-0.4-0.1-0.7-0.1-1.1-0.2c-0.4,0-0.8-0.1-1.2-0.1c-1.1,0-1.9,0.3-2.5,0.9
				c-0.6,0.6-0.9,1.5-0.9,2.6v2.8h4.9v4.8h-4.9v20.5H219z"/>
			<path fill="#2266BB" d="M232.8,625.5c0-3.8,1.1-6.9,3.2-9.3c2.1-2.4,5-3.6,8.8-3.6c3.7,0,6.7,1.2,8.8,3.6
				c2.1,2.4,3.2,5.5,3.2,9.3v0.5c0,3.8-1.1,6.9-3.2,9.3c-2.1,2.4-5,3.6-8.8,3.6c-3.7,0-6.7-1.2-8.8-3.6c-2.1-2.4-3.2-5.5-3.2-9.3
				V625.5z M239.6,626c0,2.3,0.4,4.2,1.2,5.6c0.8,1.4,2.1,2.1,3.9,2.1c1.8,0,3.1-0.7,3.9-2.1c0.8-1.4,1.2-3.3,1.2-5.5v-0.5
				c0-2.2-0.4-4.1-1.2-5.5c-0.8-1.4-2.1-2.1-3.9-2.1c-1.8,0-3.1,0.7-3.9,2.1c-0.8,1.4-1.2,3.3-1.2,5.5V626z"/>
			<path fill="#2266BB" d="M274.2,619l-2.5-0.1c-1,0-1.8,0.2-2.5,0.6c-0.7,0.4-1.2,1-1.5,1.8v17.1h-6.8v-25.3h6.3l0.3,3.7
				c0.6-1.3,1.4-2.4,2.3-3.1c0.9-0.7,2-1.1,3.3-1.1c0.3,0,0.7,0,0.9,0.1c0.3,0.1,0.6,0.1,0.9,0.2L274.2,619z"/>
			<path fill="#2266BB" d="M284.1,613.1l0.3,3.3c0.8-1.2,1.8-2.2,3.1-2.8c1.2-0.7,2.6-1,4.2-1c1.6,0,3,0.4,4.2,1.1
				c1.2,0.7,2,1.8,2.6,3.3c0.8-1.4,1.8-2.4,3-3.2c1.2-0.8,2.7-1.1,4.4-1.1c2.5,0,4.5,0.9,5.9,2.7c1.4,1.8,2.2,4.5,2.2,8.1v15h-6.8
				v-15c0-2-0.3-3.4-0.9-4.2c-0.6-0.8-1.6-1.2-2.8-1.2c-1,0-1.8,0.2-2.5,0.6c-0.7,0.4-1.3,1-1.7,1.8c0,0.3,0,0.6,0,0.8
				c0,0.2,0,0.4,0,0.6v16.6h-6.8v-15c0-2-0.3-3.4-0.9-4.2c-0.6-0.8-1.6-1.2-2.8-1.2c-0.9,0-1.7,0.2-2.4,0.5
				c-0.7,0.4-1.3,0.8-1.7,1.5v18.5h-6.8v-25.3H284.1z"/>
			<path fill="#2266BB" d="M334.2,638.4c-0.2-0.6-0.5-1.2-0.6-1.8c-0.2-0.6-0.3-1.3-0.4-2c-0.7,1.2-1.6,2.3-2.8,3.1
				c-1.2,0.8-2.5,1.2-4.1,1.2c-2.7,0-4.7-0.7-6.1-2c-1.4-1.4-2.2-3.2-2.2-5.6c0-2.5,1-4.4,2.9-5.8c1.9-1.4,4.7-2,8.4-2h3.8v-2
				c0-1.2-0.3-2.2-1-2.8c-0.6-0.7-1.6-1-2.9-1c-1.1,0-2,0.3-2.6,0.8c-0.6,0.5-0.9,1.3-0.9,2.2h-6.6l0-0.1c-0.1-2.1,0.8-4,2.8-5.5
				c2-1.6,4.6-2.3,7.7-2.3c3,0,5.5,0.8,7.4,2.3c1.9,1.5,2.8,3.7,2.8,6.6V632c0,1.2,0.1,2.3,0.3,3.3c0.2,1,0.5,2.1,0.9,3.1H334.2z
				 M327.9,633.9c1.2,0,2.2-0.3,3.2-0.9c0.9-0.6,1.6-1.3,1.9-2.1v-3.6h-3.8c-1.5,0-2.5,0.4-3.3,1.1c-0.7,0.7-1.1,1.6-1.1,2.6
				c0,0.9,0.3,1.5,0.8,2C326.2,633.6,327,633.9,327.9,633.9z"/>
			<path fill="#2266BB" d="M353.2,606.9v6.2h4.3v4.8h-4.3v12.9c0,1,0.2,1.7,0.6,2.1c0.4,0.4,1,0.6,1.6,0.6c0.4,0,0.7,0,0.9-0.1
				c0.3,0,0.6-0.1,0.9-0.2l0.6,4.9c-0.7,0.2-1.4,0.4-2,0.5c-0.6,0.1-1.4,0.2-2.1,0.2c-2.4,0-4.2-0.6-5.4-1.9
				c-1.3-1.3-1.9-3.3-1.9-6.2v-12.9h-3.7v-4.8h3.7v-6.2H353.2z"/>
			<path fill="#2266BB" d="M368.9,607.1H362v-5.1h6.8V607.1z M368.9,638.4H362v-25.3h6.8V638.4z"/>
			<path fill="#2266BB" d="M373.4,626c0-4,0.9-7.2,2.6-9.7c1.7-2.4,4.2-3.7,7.3-3.7c1.4,0,2.6,0.3,3.7,0.9c1.1,0.6,2,1.5,2.7,2.7
				l0.6-3.1h5.8v35.1h-6.8v-12.1c-0.7,0.9-1.6,1.6-2.6,2.1c-1,0.5-2.2,0.7-3.5,0.7c-3.1,0-5.5-1.1-7.2-3.4c-1.7-2.3-2.6-5.3-2.6-9
				V626z M380.2,626.5c0,2.2,0.4,4,1.1,5.3c0.7,1.3,2,1.9,3.7,1.9c1,0,1.9-0.2,2.6-0.6c0.7-0.4,1.3-0.9,1.8-1.6v-11.2
				c-0.5-0.7-1-1.3-1.7-1.7c-0.7-0.4-1.6-0.6-2.5-0.6c-1.7,0-2.9,0.7-3.7,2.2c-0.8,1.5-1.2,3.4-1.2,5.8V626.5z"/>
			<path fill="#2266BB" d="M417,634.7c-0.8,1.4-1.8,2.4-3,3.1c-1.2,0.7-2.6,1.1-4.2,1.1c-2.7,0-4.8-0.9-6.3-2.7
				c-1.5-1.8-2.3-4.6-2.3-8.4v-14.7h6.8v14.7c0,2.2,0.3,3.7,0.9,4.6c0.6,0.8,1.5,1.2,2.8,1.2c1.1,0,2-0.2,2.8-0.5
				c0.8-0.4,1.4-0.9,1.9-1.6v-18.4h6.8v25.3h-5.7L417,634.7z"/>
			<path fill="#2266BB" d="M439.6,638.9c-3.8,0-6.7-1.2-8.8-3.5c-2.1-2.3-3.2-5.3-3.2-9v-0.9c0-3.8,1-6.9,3.1-9.3
				c2.1-2.4,4.9-3.6,8.5-3.6c3.4,0,6,1,7.8,3.1c1.8,2.1,2.7,4.9,2.7,8.4v3.5h-15.1l-0.1,0.1c0.1,1.7,0.6,3.1,1.6,4.2
				c0.9,1.1,2.3,1.6,4.2,1.6c1.5,0,2.8-0.2,3.9-0.5c1.1-0.3,2.2-0.8,3.3-1.4l1.8,4.2c-1,0.8-2.4,1.5-4.1,2.1
				C443.5,638.6,441.6,638.9,439.6,638.9z M439.1,617.9c-1.4,0-2.4,0.5-3.2,1.4c-0.7,0.9-1.2,2.2-1.3,3.8l0,0.1h8.3v-0.5
				c0-1.5-0.3-2.6-0.9-3.5C441.4,618.3,440.5,617.9,439.1,617.9z"/>
			<path fill="#2266BB" d="M470.4,620.2c-1-1.4-1.8-2.7-2.3-3.8c-0.5-1.2-0.7-2.3-0.7-3.5c0-2.8,0.8-5,2.5-6.6
				c1.7-1.5,3.9-2.3,6.8-2.3c2.5,0,4.5,0.8,6,2.3c1.6,1.5,2.3,3.4,2.3,5.6c0,1.6-0.3,3-1,4.2c-0.7,1.2-1.6,2.3-2.9,3.3l-2.4,1.7
				l6.3,7.4c0.6-0.9,1-1.9,1.3-3c0.3-1.1,0.5-2.2,0.5-3.5h5.5c0,2.2-0.3,4.2-0.8,6.1c-0.6,1.8-1.4,3.5-2.6,4.9l4.7,5.5l0,0.1h-7.6
				l-1.8-2.1c-1.3,0.9-2.7,1.5-4.1,1.9c-1.4,0.4-2.9,0.6-4.5,0.6c-3.4,0-6.1-0.9-8.1-2.7c-2-1.8-3-4.1-3-7c0-1.9,0.5-3.5,1.5-4.8
				C466.9,623.1,468.4,621.7,470.4,620.2z M475.9,633.7c0.8,0,1.7-0.1,2.5-0.3c0.8-0.2,1.6-0.5,2.4-0.9l-6.9-8l-0.2,0.2
				c-0.9,0.7-1.6,1.5-1.9,2.2c-0.3,0.7-0.5,1.4-0.5,2.1c0,1.4,0.4,2.5,1.3,3.4C473.4,633.2,474.5,633.7,475.9,633.7z M473.5,612.7
				c0,0.7,0.2,1.3,0.5,2c0.3,0.7,0.8,1.4,1.4,2.2l1.8-1.1c0.9-0.6,1.5-1.1,1.8-1.7c0.3-0.6,0.5-1.2,0.5-1.9c0-0.8-0.3-1.5-0.8-2.1
				c-0.5-0.6-1.2-0.9-2.1-0.9c-0.9,0-1.7,0.3-2.2,1C473.7,610.9,473.5,611.7,473.5,612.7z"/>
			<path fill="#2266BB" d="M527.3,629.5c0-1.3-0.5-2.4-1.4-3.2c-0.9-0.8-2.5-1.5-4.8-2.2c-3.9-1.2-6.9-2.6-8.9-4.2
				c-2-1.6-3.1-3.8-3.1-6.6c0-2.8,1.1-5.1,3.4-6.8c2.3-1.8,5.2-2.7,8.8-2.7c3.8,0,6.8,1,9.1,2.9c2.3,1.9,3.4,4.4,3.3,7.5l0,0.1h-6.6
				c0-1.7-0.5-3-1.5-3.9c-1-0.9-2.5-1.4-4.3-1.4c-1.7,0-3,0.4-3.9,1.2c-0.9,0.8-1.4,1.8-1.4,3.1c0,1.2,0.5,2.1,1.5,2.8
				c1,0.7,2.7,1.5,5.2,2.4c3.7,1.1,6.6,2.4,8.6,4.2c2,1.7,2.9,4,2.9,6.8c0,2.9-1.1,5.2-3.4,6.9c-2.3,1.7-5.3,2.5-9,2.5
				c-3.7,0-6.8-0.9-9.4-2.7c-2.6-1.8-3.9-4.5-3.8-8.2l0-0.1h6.6c0,2,0.6,3.5,1.8,4.4c1.2,1,2.8,1.4,4.8,1.4c1.8,0,3.2-0.4,4.2-1.1
				C526.8,631.8,527.3,630.8,527.3,629.5z"/>
			<path fill="#2266BB" d="M547.7,627.8l0.3,1.4h0.1l4.8-16.1h7.3l-10.3,29.1c-0.7,1.8-1.7,3.3-2.9,4.6c-1.2,1.2-3.1,1.9-5.5,1.9
				c-0.6,0-1.1,0-1.6-0.1c-0.5-0.1-1.1-0.2-1.8-0.4l0.8-5c0.2,0,0.4,0.1,0.7,0.1c0.2,0,0.4,0,0.6,0c1.1,0,2-0.3,2.6-0.8
				c0.6-0.6,1.1-1.2,1.4-2.1l0.8-2l-9-25.3h7.3L547.7,627.8z"/>
			<path fill="#2266BB" d="M576.8,631.4c0-0.7-0.4-1.4-1.1-1.9c-0.7-0.5-2.1-1-4-1.4c-3-0.6-5.2-1.5-6.7-2.7
				c-1.5-1.2-2.3-2.8-2.3-4.9c0-2.2,0.9-4,2.8-5.5c1.8-1.5,4.3-2.3,7.3-2.3c3.2,0,5.8,0.8,7.7,2.3c1.9,1.5,2.9,3.4,2.8,5.7l0,0.1
				h-6.6c0-1-0.3-1.8-1-2.5c-0.7-0.6-1.6-1-2.8-1c-1.1,0-2,0.3-2.6,0.8c-0.6,0.5-1,1.2-1,2c0,0.8,0.3,1.4,1,1.9c0.7,0.5,2,0.9,4,1.3
				c3.1,0.6,5.4,1.5,6.9,2.7c1.5,1.2,2.3,2.9,2.3,5c0,2.3-1,4.1-2.9,5.6c-1.9,1.5-4.5,2.2-7.7,2.2c-3.4,0-6-0.9-8-2.6
				c-2-1.7-2.9-3.7-2.8-5.8l0-0.1h6.2c0,1.4,0.5,2.3,1.3,2.9s1.9,0.9,3.3,0.9c1.3,0,2.2-0.3,2.9-0.8
				C576.5,633,576.8,632.3,576.8,631.4z"/>
			<path fill="#2266BB" d="M596,606.9v6.2h4.3v4.8H596v12.9c0,1,0.2,1.7,0.6,2.1c0.4,0.4,1,0.6,1.6,0.6c0.4,0,0.7,0,0.9-0.1
				c0.3,0,0.6-0.1,0.9-0.2l0.6,4.9c-0.7,0.2-1.4,0.4-2,0.5c-0.6,0.1-1.4,0.2-2.1,0.2c-2.4,0-4.2-0.6-5.4-1.9
				c-1.3-1.3-1.9-3.3-1.9-6.2v-12.9h-3.7v-4.8h3.7v-6.2H596z"/>
			<path fill="#2266BB" d="M615.5,638.9c-3.8,0-6.7-1.2-8.8-3.5c-2.1-2.3-3.2-5.3-3.2-9v-0.9c0-3.8,1-6.9,3.1-9.3
				c2.1-2.4,4.9-3.6,8.5-3.6c3.4,0,6,1,7.8,3.1c1.8,2.1,2.7,4.9,2.7,8.4v3.5h-15.1l-0.1,0.1c0.1,1.7,0.6,3.1,1.6,4.2
				c0.9,1.1,2.3,1.6,4.2,1.6c1.5,0,2.8-0.2,3.9-0.5c1.1-0.3,2.2-0.8,3.3-1.4l1.8,4.2c-1,0.8-2.4,1.5-4.1,2.1
				C619.4,638.6,617.5,638.9,615.5,638.9z M617.8,608.5h-5.9l-6.4-6.1l0-0.1h7.6L617.8,608.5z M615,617.9c-1.4,0-2.4,0.5-3.2,1.4
				c-0.7,0.9-1.2,2.2-1.3,3.8l0,0.1h8.3v-0.5c0-1.5-0.3-2.6-0.9-3.5C617.4,618.3,616.4,617.9,615,617.9z"/>
			<path fill="#2266BB" d="M635.9,613.1l0.3,3.3c0.8-1.2,1.8-2.2,3.1-2.8c1.2-0.7,2.6-1,4.2-1c1.6,0,3,0.4,4.2,1.1
				c1.2,0.7,2,1.8,2.6,3.3c0.8-1.4,1.8-2.4,3-3.2c1.2-0.8,2.7-1.1,4.4-1.1c2.5,0,4.5,0.9,5.9,2.7c1.4,1.8,2.2,4.5,2.2,8.1v15h-6.8
				v-15c0-2-0.3-3.4-0.9-4.2s-1.6-1.2-2.8-1.2c-1,0-1.8,0.2-2.5,0.6c-0.7,0.4-1.3,1-1.7,1.8c0,0.3,0,0.6,0,0.8c0,0.2,0,0.4,0,0.6
				v16.6h-6.8v-15c0-2-0.3-3.4-0.9-4.2c-0.6-0.8-1.6-1.2-2.8-1.2c-0.9,0-1.7,0.2-2.4,0.5c-0.7,0.4-1.3,0.8-1.7,1.5v18.5h-6.8v-25.3
				H635.9z"/>
			<path fill="#2266BB" d="M682,638.9c-3.8,0-6.7-1.2-8.8-3.5c-2.1-2.3-3.2-5.3-3.2-9v-0.9c0-3.8,1-6.9,3.1-9.3
				c2.1-2.4,4.9-3.6,8.5-3.6c3.4,0,6,1,7.8,3.1c1.8,2.1,2.7,4.9,2.7,8.4v3.5H677l-0.1,0.1c0.1,1.7,0.6,3.1,1.6,4.2
				c0.9,1.1,2.3,1.6,4.2,1.6c1.5,0,2.8-0.2,3.9-0.5c1.1-0.3,2.2-0.8,3.3-1.4l1.8,4.2c-1,0.8-2.4,1.5-4.1,2.1
				C685.9,638.6,684,638.9,682,638.9z M681.5,617.9c-1.4,0-2.4,0.5-3.2,1.4c-0.7,0.9-1.2,2.2-1.3,3.8l0,0.1h8.3v-0.5
				c0-1.5-0.3-2.6-0.9-3.5C683.9,618.3,682.9,617.9,681.5,617.9z"/>
			<path fill="#2266BB" d="M706.9,626c0-4,0.9-7.2,2.6-9.7c1.7-2.4,4.2-3.7,7.3-3.7c1.3,0,2.4,0.3,3.4,0.8c1,0.5,1.9,1.3,2.7,2.3
				v-13.9h6.9v36.5h-5.8l-0.6-3.1c-0.8,1.2-1.7,2.1-2.8,2.7c-1.1,0.6-2.3,0.9-3.7,0.9c-3.1,0-5.5-1.1-7.2-3.4
				c-1.7-2.3-2.6-5.3-2.6-9V626z M713.8,626.5c0,2.2,0.4,4,1.1,5.2c0.7,1.3,2,1.9,3.7,1.9c1,0,1.8-0.2,2.6-0.6
				c0.7-0.4,1.3-1,1.8-1.7v-10.8c-0.5-0.8-1.1-1.4-1.8-1.9c-0.7-0.4-1.6-0.7-2.5-0.7c-1.7,0-2.9,0.7-3.7,2.2
				c-0.8,1.5-1.2,3.4-1.2,5.8V626.5z"/>
			<path fill="#2266BB" d="M741.9,610.4l-2.4,6.7h-3.4v-12.7h5.8V610.4z"/>
			<path fill="#2266BB" d="M755.9,638.4h-6.8v-34.1h6.8V638.4z"/>
			<path fill="#2266BB" d="M768.4,613.1l0.3,3.6c0.8-1.3,1.9-2.3,3.1-3c1.2-0.7,2.6-1.1,4.1-1.1c2.6,0,4.6,0.8,6,2.5
				c1.4,1.6,2.2,4.2,2.2,7.8v15.5h-6.9v-15.5c0-1.8-0.3-3.1-0.9-3.8c-0.6-0.8-1.6-1.1-2.8-1.1c-1,0-1.9,0.2-2.7,0.6
				c-0.8,0.4-1.4,0.9-1.9,1.6v18.3H762v-25.3H768.4z"/>
			<path fill="#2266BB" d="M791,638.4v-20.5h-3.8v-4.8h3.8v-2.8c0-2.8,0.8-5,2.5-6.6c1.6-1.5,3.9-2.3,6.9-2.3c0.6,0,1.2,0,1.8,0.1
				c0.6,0.1,1.3,0.2,2,0.4l-0.6,5.1c-0.4-0.1-0.7-0.1-1.1-0.2c-0.4,0-0.8-0.1-1.2-0.1c-1.1,0-1.9,0.3-2.5,0.9
				c-0.6,0.6-0.9,1.5-0.9,2.6v2.8h4.9v4.8h-4.9v20.5H791z"/>
			<path fill="#2266BB" d="M804.8,625.5c0-3.8,1.1-6.9,3.2-9.3c2.1-2.4,5-3.6,8.8-3.6c3.7,0,6.7,1.2,8.8,3.6
				c2.1,2.4,3.2,5.5,3.2,9.3v0.5c0,3.8-1.1,6.9-3.2,9.3c-2.1,2.4-5,3.6-8.8,3.6c-3.7,0-6.7-1.2-8.8-3.6c-2.1-2.4-3.2-5.5-3.2-9.3
				V625.5z M811.7,626c0,2.3,0.4,4.2,1.2,5.6c0.8,1.4,2.1,2.1,3.9,2.1c1.8,0,3.1-0.7,3.9-2.1c0.8-1.4,1.2-3.3,1.2-5.5v-0.5
				c0-2.2-0.4-4.1-1.2-5.5c-0.8-1.4-2.1-2.1-3.9-2.1c-1.8,0-3.1,0.7-3.9,2.1c-0.8,1.4-1.2,3.3-1.2,5.5V626z"/>
			<path fill="#2266BB" d="M846.3,619l-2.5-0.1c-1,0-1.8,0.2-2.5,0.6c-0.7,0.4-1.2,1-1.5,1.8v17.1h-6.8v-25.3h6.3l0.3,3.7
				c0.6-1.3,1.4-2.4,2.3-3.1c0.9-0.7,2-1.1,3.3-1.1c0.3,0,0.7,0,0.9,0.1c0.3,0.1,0.6,0.1,0.9,0.2L846.3,619z"/>
			<path fill="#2266BB" d="M856.2,613.1l0.3,3.3c0.8-1.2,1.8-2.2,3.1-2.8c1.2-0.7,2.6-1,4.2-1c1.6,0,3,0.4,4.2,1.1
				c1.2,0.7,2,1.8,2.6,3.3c0.8-1.4,1.8-2.4,3-3.2c1.2-0.8,2.7-1.1,4.4-1.1c2.5,0,4.5,0.9,5.9,2.7c1.4,1.8,2.2,4.5,2.2,8.1v15h-6.8
				v-15c0-2-0.3-3.4-0.9-4.2c-0.6-0.8-1.6-1.2-2.8-1.2c-1,0-1.8,0.2-2.5,0.6c-0.7,0.4-1.3,1-1.7,1.8c0,0.3,0,0.6,0,0.8
				c0,0.2,0,0.4,0,0.6v16.6h-6.8v-15c0-2-0.3-3.4-0.9-4.2c-0.6-0.8-1.6-1.2-2.8-1.2c-0.9,0-1.7,0.2-2.4,0.5
				c-0.7,0.4-1.3,0.8-1.7,1.5v18.5h-6.8v-25.3H856.2z"/>
			<path fill="#2266BB" d="M906.2,638.4c-0.2-0.6-0.5-1.2-0.6-1.8c-0.2-0.6-0.3-1.3-0.4-2c-0.7,1.2-1.6,2.3-2.8,3.1
				c-1.2,0.8-2.5,1.2-4.1,1.2c-2.7,0-4.7-0.7-6.1-2c-1.4-1.4-2.2-3.2-2.2-5.6c0-2.5,1-4.4,2.9-5.8c1.9-1.4,4.7-2,8.4-2h3.8v-2
				c0-1.2-0.3-2.2-1-2.8c-0.6-0.7-1.6-1-2.9-1c-1.1,0-2,0.3-2.6,0.8c-0.6,0.5-0.9,1.3-0.9,2.2h-6.6l0-0.1c-0.1-2.1,0.8-4,2.8-5.5
				c2-1.6,4.6-2.3,7.7-2.3c3,0,5.5,0.8,7.4,2.3c1.9,1.5,2.8,3.7,2.8,6.6V632c0,1.2,0.1,2.3,0.3,3.3c0.2,1,0.5,2.1,0.9,3.1H906.2z
				 M900,633.9c1.2,0,2.2-0.3,3.2-0.9c0.9-0.6,1.6-1.3,1.9-2.1v-3.6h-3.8c-1.5,0-2.5,0.4-3.3,1.1c-0.7,0.7-1.1,1.6-1.1,2.6
				c0,0.9,0.3,1.5,0.8,2C898.2,633.6,899,633.9,900,633.9z"/>
			<path fill="#2266BB" d="M925.2,606.9v6.2h4.3v4.8h-4.3v12.9c0,1,0.2,1.7,0.6,2.1c0.4,0.4,1,0.6,1.6,0.6c0.4,0,0.7,0,0.9-0.1
				c0.3,0,0.6-0.1,0.9-0.2l0.6,4.9c-0.7,0.2-1.4,0.4-2,0.5c-0.6,0.1-1.4,0.2-2.1,0.2c-2.4,0-4.2-0.6-5.4-1.9
				c-1.3-1.3-1.9-3.3-1.9-6.2v-12.9h-3.7v-4.8h3.7v-6.2H925.2z"/>
			<path fill="#2266BB" d="M940.9,607.1H934v-5.1h6.8V607.1z M940.9,638.4H934v-25.3h6.8V638.4z"/>
			<path fill="#2266BB" d="M945.4,625.5c0-3.8,1.1-6.9,3.2-9.3c2.1-2.4,5-3.6,8.8-3.6c3.7,0,6.7,1.2,8.8,3.6
				c2.1,2.4,3.2,5.5,3.2,9.3v0.5c0,3.8-1.1,6.9-3.2,9.3c-2.1,2.4-5,3.6-8.8,3.6c-3.7,0-6.7-1.2-8.8-3.6c-2.1-2.4-3.2-5.5-3.2-9.3
				V625.5z M952.3,626c0,2.3,0.4,4.2,1.2,5.6c0.8,1.4,2.1,2.1,3.9,2.1c1.8,0,3.1-0.7,3.9-2.1c0.8-1.4,1.2-3.3,1.2-5.5v-0.5
				c0-2.2-0.4-4.1-1.2-5.5c-0.8-1.4-2.1-2.1-3.9-2.1c-1.8,0-3.1,0.7-3.9,2.1c-0.8,1.4-1.2,3.3-1.2,5.5V626z"/>
			<path fill="#2266BB" d="M979.8,613.1l0.3,3.6c0.8-1.3,1.9-2.3,3.1-3c1.2-0.7,2.6-1.1,4.1-1.1c2.6,0,4.6,0.8,6,2.5
				c1.4,1.6,2.2,4.2,2.2,7.8v15.5h-6.9v-15.5c0-1.8-0.3-3.1-0.9-3.8c-0.6-0.8-1.6-1.1-2.8-1.1c-1,0-1.9,0.2-2.7,0.6
				c-0.8,0.4-1.4,0.9-1.9,1.6v18.3h-6.8v-25.3H979.8z"/>
		</g>
		<g>
			<path fill="#2266BB" d="M37.4,546.9c0,6.6,4.3,8.5,4.3,8.5h-8.5c-2.4,0-4.3-1.9-4.3-4.3v4.3h-8.5c-8.5,0-12.8-6.4-12.8-12.8
				c0-6.4,4.3-12.8,12.8-12.8h4.3c2.4,0,4.3,1.9,4.3,4.3v-4.3c6.6,0,8.5-4.3,8.5-4.3V546.9z M20.3,526.5l-5.1-5.1l5.1-5.1l4.3,4.2
				l4.3-4.2l5.1,5.1l-5.1,5.1l-4.3-4.3L20.3,526.5z M28.8,546.9v-8.5h-8.5c-2.9,0-4.3,2.2-4.2,4.4c0.1,2.1,1.5,4.1,4.2,4.1H28.8z"/>
			<path fill="#2266BB" d="M58.7,529.9v25.5h-17c-2.4,0-4.3-1.9-4.3-4.3V547h12.8v-12.8c0-2.3,1.9-4.3,4.3-4.3H58.7z M47.1,558.8
				l4.3,4.3l4.3-4.3l5.1,5.1l-5.1,5.1l-4.3-4.3l-4.3,4.3l-5.1-5.1L47.1,558.8z"/>
			<path fill="#2266BB" d="M79.9,529.9v25.5h-17c-2.4,0-4.3-1.9-4.3-4.3V547h12.8v-12.8c0-2.3,1.9-4.3,4.3-4.3H79.9z M69.3,526.5
				l-5.1-5.1l5.1-5.1l4.3,4.3l4.3-4.3l5.1,5.1l-5.1,5.1l-4.3-4.3L69.3,526.5z"/>
			<path fill="#2266BB" d="M97,546.9c0,6.6,4.2,8.5,4.2,8.5H88.5v-44.8c3.2,11.6,13.6,17.1,13.6,17.1H97V546.9z"/>
			<path fill="#2266BB" d="M107.9,542.7c0-8.5,6.4-12.8,12.8-12.8c8.4,0,12.6,6.2,12.8,12.5c0.2,6.5-4.1,13.1-12.8,13.1
				c-2.3,0-4.3-1.9-4.3-4.3c0,2.4-1.9,4.3-4.3,4.3h-10.9c-2.3,0-4.3-1.9-4.3-4.3V547h10.9V542.7z M120.6,547c2.8,0,4.3-2.1,4.3-4.3
				c0-2.1-1.4-4.3-4.3-4.3c-2.1,0-4.3,1.4-4.3,4.3v4.3H120.6z"/>
			<path fill="#2266BB" d="M164.9,555.5c-1.8,8.5-9.2,12.8-16.6,12.8c0-6.6-4.3-8.5-4.3-8.5h4.3c3,0,6-1.4,7.5-4.3h-3.3
				c-8.5,0-12.7-6.3-12.8-12.7c-0.1-6.4,4.2-12.9,12.8-12.9c8.5,0,12.8,6.4,12.8,12.8v4.3c0,6.6,4.3,8.5,4.3,8.5H164.9z
				 M156.8,542.7c0-2.1-1.4-4.3-4.3-4.3c-2.8,0-4.3,2.1-4.2,4.3c0,2.1,1.4,4.2,4.2,4.2h4.3V542.7z"/>
			<path fill="#2266BB" d="M173.8,510.7c3.2,11.6,13.7,17,13.7,17h-5.1v27.8h-12.8c-2.4,0-4.3-1.9-4.3-4.2V547h8.5V510.7z"/>
			<path fill="#2266BB" d="M233.4,547c0,6.6,4.3,8.5,4.3,8.5h-21.3c-2.4,0-4.3-1.9-4.3-4.3c0,2.4-1.9,4.3-4.3,4.3h-21.3
				c-2.4,0-4.3-1.9-4.3-4.3V547h21.3v-4.3c0-2.1-1.4-4.3-4.2-4.3h-4.3l-4.2-8.5h46.9c0,0-4.3,1.9-4.3,8.5h-4.3
				c-2.1,0-4.3,1.4-4.3,4.3v4.3H233.4z M216.4,542.7c0-1.6,0.2-3,0.6-4.3h-5.5c0.4,1.4,0.7,2.8,0.7,4.3v4.3h4.3V542.7z"/>
			<path fill="#2266BB" d="M244.3,542.7c0-8.5,6.4-12.8,12.8-12.8c8.5,0,12.8,6.4,12.8,12.8v8.5c0,2.4-1.9,4.3-4.2,4.3h-8.5
				c-2.4,0-4.3-1.9-4.3-4.3c0,2.4-1.9,4.3-4.3,4.3h-10.9c-2.4,0-4.3-1.9-4.3-4.3V547h10.9V542.7z M261.4,547v-4.3
				c0-2.1-1.4-4.3-4.3-4.3c-2.1,0-4.3,1.4-4.3,4.3v4.3H261.4z"/>
			<path fill="#2266BB" d="M278.3,510.7c3.2,11.6,13.7,17,13.7,17h-5.1v27.8h-12.8c-2.4,0-4.3-1.9-4.3-4.2V547h8.5V510.7z"/>
			<path fill="#2266BB" d="M295.2,510.6c3.2,11.6,13.6,17.1,13.6,17.1h-5.1v27.8h-8.5V510.6z"/>
			<path fill="#2266BB" d="M339.6,542.7c0-8.5,6.4-12.8,12.8-12.8c8.5,0,12.8,6.4,12.8,12.8v8.5c0,2.4-1.9,4.3-4.3,4.3h-8.5
				c-2.3,0-4.3-1.9-4.3-4.3c0,2.4-1.9,4.3-4.2,4.3h-6.5c-2.1,0-4.3,1.4-4.3,4.3v8.5l-8.5-4.3v-4.3c0-8.5,6.4-12.8,12.8-12.8h2.2
				V542.7z M356.6,547v-4.3c0-2.1-1.4-4.3-4.3-4.3c-2.1,0-4.3,1.4-4.3,4.3v4.3H356.6z"/>
			<path fill="#2266BB" d="M408.8,529.9c8.5,0,12.8,6.4,12.8,12.8v12.8h-39.4v-4.2c0,2.3-1.9,4.2-4.3,4.2h-8.5
				c-2.4,0-4.3-1.9-4.3-4.3v-4.3h8.5v-36.3c3.2,11.6,13.6,17,13.6,17h-5.1v6.4c2.4-2.7,5.5-4.2,8.5-4.2H408.8z M413.1,542.7
				c0-2.1-1.4-4.3-4.3-4.3h-18.1c-5.7,0-8.5,4.2-8.5,8.5h30.9V542.7z M399.2,526.5l-5.1-5.1l5.1-5.1l5.1,5.1L399.2,526.5z"/>
			<path fill="#2266BB" d="M425.9,555.5c-2.3,0-4.3-1.9-4.3-4.3V547h8.6v-12.8c0-2.3,1.9-4.3,4.2-4.3h4.3v25.5H425.9z M439.5,521.4
				l-5.1,5.1l-5.1-5.1l5.1-5.1L439.5,521.4z"/>
			<path fill="#2266BB" d="M447.1,510.7c3.2,11.6,13.7,17,13.7,17h-5.1v27.8h-12.8c-2.4,0-4.3-1.9-4.3-4.2V547h8.5V510.7z"/>
			<path fill="#2266BB" d="M463.9,510.6c3.2,11.6,13.6,17.1,13.6,17.1h-5.1v27.8h-8.5V510.6z"/>
			<path fill="#2266BB" d="M500.8,559.7c4.2,0,8.5-2.8,8.5-8.5c0,2.3-1.9,4.3-4.3,4.3c-8.4,0-12.6-6.2-12.8-12.5
				c-0.2-6.5,4.1-13.1,12.8-13.1c8.5,0,12.8,6.4,12.8,12.8v8.5c0,11.3-8.5,17-17,17c0-6.6-4.3-8.5-4.3-8.5H500.8z M509.3,547v-4.3
				c0-2.1-1.4-4.3-4.3-4.3c-3,0-4.4,2.4-4.2,4.6c0.2,2,1.6,3.9,4.2,3.9H509.3z"/>
			<path fill="#2266BB" d="M584.6,529.9v25.5h-32.9c-8.4,0-12.6-6.2-12.8-12.5c-0.1-6.4,4.1-13,12.8-13c0,6.6,4.3,8.5,4.3,8.5h-4.3
				c-2.8,0-4.3,2.2-4.2,4.3c0,2.1,1.4,4.2,4.2,4.2h24.3v-12.8c0-2.3,1.9-4.3,4.3-4.3H584.6z M561.3,526.5l-5.1-5.1l5.1-5.1l4.3,4.3
				l4.3-4.3l5.1,5.1l-5.1,5.1l-4.3-4.3L561.3,526.5z"/>
			<path fill="#2266BB" d="M601.7,546.9c0,6.6,4.2,8.5,4.2,8.5h-12.8v-44.8c3.2,11.6,13.6,17.1,13.6,17.1h-5.1V546.9z"/>
			<path fill="#2266BB" d="M623,529.9v25.5h-17c-2.4,0-4.3-1.9-4.3-4.3V547h12.8v-12.8c0-2.3,1.9-4.3,4.3-4.3H623z M611.4,558.8
				l4.3,4.3l4.3-4.3l5.1,5.1L620,569l-4.3-4.3l-4.3,4.3l-5.1-5.1L611.4,558.8z"/>
			<path fill="#2266BB" d="M633.9,542.7c0-8.5,6.4-12.8,12.8-12.8c8.4,0,12.6,6.2,12.8,12.5c0.2,6.5-4.1,13.1-12.8,13.1
				c-2.3,0-4.3-1.9-4.3-4.3c0,2.4-1.9,4.3-4.3,4.3h-10.9c-2.3,0-4.3-1.9-4.3-4.3V547h10.9V542.7z M646.6,547c2.8,0,4.3-2.1,4.3-4.3
				c0-2.1-1.4-4.3-4.3-4.3c-2.1,0-4.3,1.4-4.3,4.3v4.3H646.6z"/>
			<path fill="#2266BB" d="M675.4,542.7c0,2.8,2.1,4.3,4.3,4.3h4.3c0,0-4.3,1.9-4.3,8.5c-6.4,0-12.8-4.2-12.8-12.8h0v-32
				c3.2,11.6,13.7,17,13.7,17h-5.1V542.7z M683.9,510.7c3.2,11.6,13.6,17,13.6,17h-5.1v27.8c0,8.5-6.4,12.8-12.8,12.8h-4.3l-4.2-8.5
				h8.5c2.1,0,4.3-1.4,4.3-4.2V510.7z"/>
			<path fill="#2266BB" d="M730.8,547l-4.2,8.5h-29.8c-2.4,0-4.3-1.9-4.3-4.2V547h8.5v-4.3c0-8.5,6.4-12.8,12.8-12.8h8.5v0
				c0,6.6,4.3,8.5,4.3,8.5h-12.8c-2.1,0-4.3,1.4-4.3,4.3v4.3H730.8z"/>
			<path fill="#2266BB" d="M744.7,542.7c0,2.8,2.1,4.3,4.3,4.3h4.3c0,0-4.3,1.9-4.3,8.5c-6.4,0-12.8-4.2-12.8-12.8h0v-32
				c3.2,11.6,13.7,17,13.7,17h-5.1V542.7z M753.2,510.7c3.2,11.6,13.6,17,13.6,17h-5.1v27.8c0,8.5-6.4,12.8-12.8,12.8h-4.3l-4.2-8.5
				h8.5c2.1,0,4.3-1.4,4.3-4.2V510.7z"/>
			<path fill="#2266BB" d="M770,510.6c3.2,11.6,13.6,17.1,13.6,17.1h-5.1v27.8H770V510.6z"/>
			<path fill="#2266BB" d="M829.3,546.9c0,6.6,4.3,8.5,4.3,8.5H825c-2.4,0-4.3-1.9-4.3-4.3v4.3h-8.5c-8.5,0-12.8-6.4-12.8-12.8
				c0-6.4,4.3-12.8,12.8-12.8h4.3c2.4,0,4.3,1.9,4.3,4.3v-4.3c6.6,0,8.5-4.3,8.5-4.3V546.9z M812.2,526.5l-5.1-5.1l5.1-5.1l4.3,4.2
				l4.3-4.2l5.1,5.1l-5.1,5.1l-4.3-4.3L812.2,526.5z M820.7,546.9v-8.5h-8.5c-2.9,0-4.3,2.2-4.2,4.4c0.1,2.1,1.5,4.1,4.2,4.1H820.7z
				"/>
			<path fill="#2266BB" d="M877.2,547l-4.2,8.5h-39.4c-2.4,0-4.3-1.9-4.3-4.3V547H877.2z M885.7,547c0,6.6,4.3,8.5,4.3,8.5h-8.5
				c-2.3,0-4.2-1.9-4.2-4.3v-8.5c0-2.1-1.4-4.3-4.3-4.3h-35.2c0,0,4.3-4.3,4.3-8.5h30.9c8.5,0,12.8,6.4,12.8,12.8V547z"/>
			<path fill="#2266BB" d="M891,510.7c3.2,11.6,13.7,17,13.7,17h-5.1v27.8h-12.8c-2.4,0-4.3-1.9-4.3-4.2V547h8.5V510.7z"/>
			<path fill="#2266BB" d="M943.3,529.9c8.5,0,12.8,6.4,12.8,12.8v12.8h-39.4v-4.3c0,2.4-1.9,4.3-4.3,4.3h-8.5
				c-2.4,0-4.3-1.9-4.3-4.3V547h8.5v-12.8l8.5-4.3v5.5c2.4-4,5.5-5.5,8.5-5.5H943.3z M947.5,547v-4.3c0-2.1-1.4-4.3-4.3-4.3h-18.1
				c-5.7,0-8.5,4.3-8.5,8.5H947.5z"/>
			<path fill="#2266BB" d="M966.9,542.7c0-8.5,6.4-12.8,12.8-12.8c8.4,0,12.6,6.2,12.8,12.5c0.2,6.5-4.1,13.1-12.8,13.1
				c-2.3,0-4.3-1.9-4.3-4.3c0,2.4-1.9,4.3-4.3,4.3h-10.9c-2.3,0-4.3-1.9-4.3-4.3V547h10.9V542.7z M979.7,547c2.8,0,4.3-2.1,4.3-4.3
				c0-2.1-1.4-4.3-4.3-4.3c-2.1,0-4.3,1.4-4.3,4.3v4.3H979.7z"/>
		</g>
	</g>
	<g>
		<path fill="none" d="M520.6,440.1c0,0.1,0,0.2,0,0.3c33.1,0,66.1,0.1,99.2,0.1c51,0.1,88.1,0,140.1-0.3
			c48-0.3,98.3-35.6,105.6-76.2c9.5-53.1,5.4-103.6-57.8-122.1c-17.6-5.2-25.3-11.1-25.6-29.7c-1.6-100.6-95.6-164-181.8-122
			c-19.5,9.5-32.1,11-41.9-11.3c-1.6-3.6-4.7-6.4-7.1-9.5C513,20.1,447.5,1.8,384.5,22.6C328.7,41,281.4,99.3,279.3,159.7
			c-0.9,27-10.6,31.5-32.1,33.4c-77.2,6.8-130.6,82.2-98.1,168.2c18.9,50,56.2,78.3,121.6,78.6C354,440.4,437.3,440.1,520.6,440.1z"
			/>
		<g>
			<g>
				<path fill="#2266BB" d="M808.6,220.3c-10.7-5-19.3-11.9-21-28.4c-9.8-93.2-107-153.7-194.8-122c-15.2,5.5-23.4,3-33.2-8.9
					c-20.9-25.5-49.6-39.1-80.3-49.4c-87.7-29.2-203.6,34.9-220.5,133.7c-0.8,4.6-1.8,8.4-3.3,11.5c-1.7,3.5-4.2,6.1-7.8,8
					c-2.9,1.5-6.6,2.4-11.3,3c-12.6,1.5-24.2,4.9-34.9,9.9c0.2-2,1.8-3.5,3.8-3.6c0,0-0.1,0-0.1,0c-2,0-3.7,1.6-3.9,3.6
					c-20.3,9.5-37.3,24.6-51.1,43.3c-33,44.5-35,93.6-10.8,142.3c24.7,49.7,68.1,74.9,122.7,76.2c82.2,1.9,164.5,0.5,246.7,0.5
					c0,0.2,0,0.4,0,0.6c6.6,0,13.2,0,19.8,0c1.1,0,2.1,0,3.2,0c0.8,0,1.5,0,2.3,0c0.4,0,0.7,0,1.1,0v0c25.3-0.6,45.6-8,60.9-22.3
					c16-14.9,24-33.9,24-57.1c0-13.2-2.8-24.9-8.5-34.9c-5.6-10-13.1-17.9-22.2-23.8c-9.2-5.8-21.8-11.7-37.8-17.7
					c-17.6-6.8-29.2-12.3-34.7-16.5c-5.5-4.2-8.3-9.8-8.3-16.9c0-6.1,2.3-11.4,7-15.9c4.7-4.6,11-6.8,19-6.8
					c9.2,0,16.8,2.9,22.9,8.8c7.7,7.4,22.3,13.8,33,13.8h0.7c14.7-5.6,20.5-23.6,11.5-36.6c-14.2-20.4-37.1-30.6-68.5-30.6
					c-23.7,0-42.7,7.1-57.1,21.4c-14.4,14.3-21.6,32.6-21.6,54.9c0,13.1,3,24.8,9.1,35.1c6.1,10.3,13.8,18.2,23.1,23.7
					c9.4,5.5,23.6,11.7,42.6,18.5c14.8,5.3,24.3,10.4,28.4,15.2c4.1,4.8,6.2,10.2,6.2,16.3c0,8-2.9,14.5-8.8,19.4
					c-5.9,4.9-13.6,7.4-23.1,7.4c-14.9,0-26-6.5-33.2-19.4c-5.6-10-17.2-15.1-28.2-12l-0.2,0.1c-2.9,0.8-5.4,2.1-7.7,3.7l0,0l0,0
					c-1.5,1.1-2.9,2.4-4.1,3.7c-35,30.8-86.7,39.3-143,41.6c-13.8,0-27.5-0.1-41.3-0.1c-62.3-0.3-97.8-25.6-115.8-70.5
					c-22.9-57-1-108.9,41.7-134.4v23.6v8.5v78.1c-6,1.7-10.3,7.4-10.1,14c0.3,7.2,6.2,13.2,13.5,13.5c8,0.3,14.6-6.1,14.6-14
					c0-6.4-4.3-11.8-10.1-13.5v-78.1v-8.5v-27.9c11.7-5.8,24.7-9.7,38.5-11.5v56.8h0c-6,1.7-10.3,7.3-10,13.9
					c0.3,7.2,6.2,13.1,13.4,13.4c7.9,0.3,14.5-6,14.5-13.9c0-6.3-4.2-11.7-10-13.4v-57.6c18.7-1.8,27.2-6.6,28-29.7
					c1.3-34.9,20.5-69.1,48.3-93.3v139.2c-0.2,0.4-0.3,0.9-0.3,1.4v15.4h-19.8c-1.6-5.4-6.8-9.2-12.9-8.6c-5.5,0.6-10,5.1-10.6,10.6
					c-0.8,7.2,4.9,13.4,11.9,13.4c5.5,0,10.1-3.7,11.5-8.6h19.8v76.7v5.7v15.1h-41.2c-1.7-6-7.4-10.3-14-10.1
					c-7.2,0.3-13.2,6.2-13.5,13.5c-0.3,8,6.1,14.6,14,14.6c6.4,0,11.8-4.3,13.5-10.1h41.2v23.8c0,2.1,1.7,3.9,3.9,3.9h0h27.6
					c1.7,5.9,7.3,10.2,13.8,10c7.1-0.3,13-6.2,13.3-13.3c0.3-7.9-6-14.4-13.8-14.4c-6.3,0-11.6,4.2-13.3,10h-23.8v-22.9
					c0.1-0.3,0.1-0.6,0.1-0.9c0,0,0,0,0,0c0,0,0,0,0,0v-19h15.6h6.1h56.5v0c1.3,4.5,5.7,7.8,10.8,7.3c5-0.5,9-4.8,9.1-9.8
					c0.2-5.8-4.4-10.5-10.2-10.5c-4.6,0-8.5,3.1-9.7,7.3c-0.2,0.7-0.3,1.4-0.4,2.1c0.1-0.7,0.2-1.4,0.4-2.1h-56.5h-6.1h-15.6v-60.4
					v-38.5v-27.4h20.6c1.6,5.4,6.8,9.2,12.9,8.6c5.5-0.6,10-5.1,10.6-10.6c0.8-7.2-4.9-13.4-11.9-13.4c-5.5,0-10.1,3.7-11.5,8.6
					h-20.6v-60.4h0V63c13.5-10.3,28.5-18.4,44.3-23.3c5.7-1.8,11.4-3.2,17.1-4.4v19.1h-0.4v48.2H384c-1.3-4.5-5.9-7.7-11-6.7
					c-3.8,0.7-6.8,3.7-7.6,7.5c-1.2,6.1,3.5,11.5,9.4,11.5c4.4,0,8-2.9,9.2-6.9h16.9v24.4c0,3.4,2.8,6.2,6.2,6.2h0h19.8v112.5h-41.2
					c-1.7-6-7.4-10.3-14-10.1c-7.2,0.3-13.2,6.2-13.5,13.5c-0.3,8,6.1,14.6,14,14.6c6.4,0,11.8-4.3,13.5-10.1H431
					c2.2,0,3.9-1.8,3.8-4l0,0c0,0,0,0,0,0V138.6h16.6c2.8,9.7,12.1,16.7,22.9,15.9c10.5-0.7,19.3-9.1,20.4-19.6
					c1.5-13.4-8.9-24.7-22-24.7c-10.1,0-18.6,6.7-21.3,16h-38.1V33.3c18.2-2.2,36.1-1.4,53.1,2.4v34.2h-16.5
					c-1.3-4.5-5.9-7.7-11-6.7c-3.8,0.7-6.8,3.7-7.6,7.5c-1.2,6.1,3.5,11.5,9.4,11.5c4.4,0,8-2.9,9.2-6.9h19.1h0
					c1.5,0,2.7-1.2,2.7-2.7V37c27.7,7.3,52.5,22.4,70.8,44.5c2.3,2.8,5.3,5.3,6.8,8.5c9.3,20,21.3,18.7,39.9,10.1
					c82-37.6,171.6,19.2,173.1,109.3c0.3,16.6,4.5,23.4,21.2,28.1c60.1,16.6,74.3,66.4,65.2,114c-6.9,36.4-49.6,62-95.3,62.3
					c-2.5,0-5.1,0-7.6,0c-29.7-1.4-49.7-8.3-50.1-19.7V283.5c0-11.6-9.4-21-20.9-21s-20.9,9.4-20.9,21v135.9c0,11.6,9.4,21,20.9,21
					h29.8v0c12.6,0,25.2,0,37.8,0c16.8,0,33.4-0.6,49.7-5.3c45.6-13.1,81-54.4,84.2-98.5C880.4,281.1,857.8,243.4,808.6,220.3z
					 M211.1,331.3c0.7,4-2.6,7.4-6.6,6.9c-2.5-0.3-4.6-2.3-5-4.8c-0.7-4,2.6-7.4,6.6-6.9C208.6,326.9,210.6,328.8,211.1,331.3z
					 M257.4,262.1c0.7,3.9-2.6,7.4-6.6,6.8c-2.5-0.3-4.5-2.3-5-4.8c-0.7-3.9,2.6-7.4,6.6-6.8C254.9,257.7,256.9,259.7,257.4,262.1z
					 M300.9,233.6c-3.4,0.5-6.3-2.5-5.7-5.9c0.4-2.1,2.1-3.8,4.3-4.1c3.4-0.5,6.3,2.5,5.7,5.9C304.8,231.6,303.1,233.3,300.9,233.6z
					 M277.7,339.3c-4,0.5-7.3-2.9-6.6-6.9c0.4-2.5,2.5-4.5,5-4.8c4-0.5,7.3,2.9,6.6,6.9C282.3,336.9,280.2,338.9,277.7,339.3z
					 M375.4,355.4c3.9-0.7,7.3,2.6,6.8,6.5c-0.3,2.5-2.3,4.5-4.7,4.9c-3.9,0.7-7.3-2.6-6.8-6.5C371,357.8,372.9,355.8,375.4,355.4z
					 M426.5,307.3c3-0.6,5.6,1.9,5.1,4.9c-0.3,1.7-1.6,3.1-3.3,3.4c-3,0.6-5.6-1.9-5.1-4.9C423.5,309.1,424.8,307.7,426.5,307.3z
					 M417.3,311.5c0,0.5,0,1,0.1,1.5C417.3,312.5,417.3,312,417.3,311.5L417.3,311.5z M370.7,174c3.4-0.6,6.4,2.3,5.9,5.7
					c-0.3,2.1-2,3.9-4.1,4.3c-3.4,0.6-6.4-2.3-5.9-5.7C366.9,176.2,368.6,174.4,370.7,174z M375.5,109.3c-2.9,0.5-5.3-2-4.7-4.8
					c0.3-1.6,1.6-2.8,3.2-3.1c2.9-0.5,5.3,2,4.7,4.8C378.4,107.8,377.1,109,375.5,109.3z M373,260.9c-4,0.5-7.3-2.9-6.6-6.9
					c0.4-2.5,2.5-4.5,5-4.8c4-0.5,7.3,2.9,6.6,6.9C377.6,258.6,375.5,260.6,373,260.9z M470.7,123.3c6.5-1.4,12.3,4.2,11.2,10.8
					c-0.6,3.7-3.5,6.7-7.2,7.5c-6.5,1.4-12.3-4.2-11.2-10.8C464.1,127.1,467,124.1,470.7,123.3z M441.5,76.6c-2.9,0.5-5.3-2-4.7-4.8
					c0.3-1.6,1.6-2.8,3.2-3.1c2.9-0.5,5.3,2,4.7,4.8C444.4,75.1,443,76.3,441.5,76.6z"/>
				<g>
					<path fill="#2266BB" d="M674.8,195.6c-14.8,0-26.8,12-26.8,26.8c0,14.8,12,26.8,26.8,26.8c14.8,0,26.8-12,26.8-26.8
						C701.6,207.6,689.6,195.6,674.8,195.6z M674.8,243.5c-11.6,0-21.1-9.4-21.1-21.1c0-11.6,9.4-21.1,21.1-21.1
						c11.6,0,21.1,9.4,21.1,21.1C695.9,234.1,686.5,243.5,674.8,243.5z"/>
					<circle fill="#F3E225" cx="674.8" cy="222.4" r="21.1"/>
				</g>
			</g>
			<path fill="#2266BB" d="M299.2,139.9c0,5.1,4.1,9.2,9.2,9.2c4.2,0,7.7-2.8,8.9-6.6h18.4h0c1.4,0,2.6-1.2,2.6-2.6v-49h-5.2v46.4
				h-15.8c-1.1-3.8-4.7-6.6-8.9-6.6C303.3,130.7,299.2,134.8,299.2,139.9z M304.5,139.8c0-2.1,1.8-3.9,4-3.8c2.1,0,3.9,1.8,3.8,4
				c0,2.1-1.8,3.9-4,3.8C306.2,143.8,304.5,142,304.5,139.8z"/>
		</g>
	</g>
</g>
</svg>
