<?xml version="1.0" encoding="utf-8"?>
<!-- Generator: Adobe Illustrator 18.1.1, SVG Export Plug-In . SVG Version: 6.00 Build 0)  -->
<svg version="1.1" id="Layer_1" xmlns="http://www.w3.org/2000/svg" xmlns:xlink="http://www.w3.org/1999/xlink" x="0px" y="0px"
	 viewBox="0 0 900 784.6" enable-background="new 0 0 900 784.6" xml:space="preserve">
<g>
	<g>
		<g>
			<circle fill="#58595B" cx="450" cy="327.2" r="46.5"/>
			<g>
				<g>
					<g>
						<g>
							<g>
								<path fill="#16AA75" d="M308.7,154.9L308.7,154.9c0,36.7,45.4,53.9,69.7,26.4l41.7-47.3c15.9-18,43.9-18,59.8,0l41.7,47.3
									c24.3,27.5,69.7,10.4,69.7-26.4l0,0c0-9.7-3.5-19.1-10-26.4l-101.5-115c-15.9-18-43.9-18-59.8,0l-101.5,115
									C312.2,135.8,308.7,145.2,308.7,154.9z"/>
							</g>
						</g>
						<path fill="#16AA75" d="M430.8,169.8c27.7-20.4,58.6,10.5,38.2,38.2c-0.2,0.3-0.5,0.6-0.9,0.9c-27.7,20.4-58.6-10.5-38.2-38.2
							C430.1,170.4,430.4,170.1,430.8,169.8z"/>
					</g>
					<g>
						<g>
							<g>
								<path fill="#E4235B" d="M591.3,499.4L591.3,499.4c0-36.7-45.4-53.9-69.7-26.4l-41.7,47.3c-15.9,18-43.9,18-59.8,0
									l-41.7-47.3c-24.3-27.5-69.7-10.4-69.7,26.4l0,0c0,9.7,3.5,19.1,10,26.4l101.5,115c15.9,18,43.9,18,59.8,0l101.5-115
									C587.8,518.5,591.3,509.2,591.3,499.4z"/>
							</g>
						</g>
						<path fill="#E4235B" d="M469.2,484.5c-27.7,20.4-58.6-10.5-38.2-38.2c0.2-0.3,0.5-0.6,0.9-0.9c27.7-20.4,58.6,10.5,38.2,38.2
							C469.9,484,469.6,484.3,469.2,484.5z"/>
					</g>
				</g>
				<g>
					<g>
						<g>
							<g>
								<path fill="#F2D03F" d="M277.7,468.5L277.7,468.5c36.7,0,53.9-45.4,26.4-69.7L256.8,357c-18-15.9-18-43.9,0-59.8l47.3-41.7
									c27.5-24.3,10.4-69.7-26.4-69.7l0,0c-9.7,0-19.1,3.5-26.4,10l-115,101.5c-18,15.9-18,43.9,0,59.8l115,101.5
									C258.6,464.9,268,468.5,277.7,468.5z"/>
							</g>
						</g>
						<path fill="#F2D03F" d="M292.6,346.4c-20.4-27.7,10.5-58.6,38.2-38.2c0.3,0.2,0.6,0.5,0.9,0.9c20.4,27.7-10.5,58.6-38.2,38.2
							C293.2,347,292.9,346.7,292.6,346.4z"/>
					</g>
					<g opacity="0.9">
						<g>
							<g>
								<path fill="#267E93" d="M622.3,185.9L622.3,185.9c-36.7,0-53.9,45.4-26.4,69.7l47.3,41.7c18,15.9,18,43.9,0,59.8l-47.3,41.7
									c-27.5,24.3-10.4,69.7,26.4,69.7l0,0c9.7,0,19.1-3.5,26.4-10l115-101.5c18-15.9,18-43.9,0-59.8l-115-101.5
									C641.4,189.4,632,185.9,622.3,185.9z"/>
							</g>
						</g>
						<path fill="#267E93" d="M607.4,307.9c20.4,27.7-10.5,58.6-38.2,38.2c-0.3-0.2-0.6-0.5-0.9-0.9c-20.4-27.7,10.5-58.6,38.2-38.2
							C606.8,307.3,607.1,307.6,607.4,307.9z"/>
					</g>
				</g>
			</g>
		</g>
	</g>
	<g>
		<path fill="#58595B" d="M118.3,782.7H94.8v-63.3c0-6.8,0.3-14.4,0.9-22.6h-0.6c-1.2,6.5-2.3,11.2-3.3,14L67,782.7H47.5l-25.2-71.2
			c-0.7-1.9-1.8-6.8-3.3-14.8h-0.7c0.6,10.4,1,19.6,1,27.4v58.5H-2.2V676.9h34.9l21.6,62.7c1.7,5,3,10.1,3.8,15.1h0.4
			c1.3-5.9,2.7-10.9,4.2-15.3l21.6-62.5h34V782.7z"/>
		<path fill="#58595B" d="M207.9,751.6h-49.3c0.8,11,7.7,16.4,20.7,16.4c8.3,0,15.6-2,21.9-5.9V779c-7,3.7-16.1,5.6-27.2,5.6
			c-12.2,0-21.7-3.4-28.4-10.1c-6.7-6.8-10.1-16.2-10.1-28.3c0-12.5,3.6-22.5,10.9-29.8c7.3-7.3,16.2-11,26.8-11
			c11,0,19.5,3.3,25.6,9.8c6,6.5,9,15.4,9,26.6V751.6z M186.3,737.3c0-10.8-4.4-16.2-13.1-16.2c-3.7,0-7,1.5-9.7,4.6
			c-2.7,3.1-4.4,7-5,11.6H186.3z"/>
		<path fill="#58595B" d="M341.7,782.7h-23.2v-43.1c0-11-4-16.4-12.1-16.4c-3.8,0-7,1.6-9.4,4.9c-2.4,3.3-3.6,7.4-3.6,12.3v42.3
			h-23.3v-43.5c0-10.7-4-16-11.9-16c-4,0-7.2,1.6-9.6,4.7c-2.4,3.1-3.6,7.4-3.6,12.8v42h-23.3v-75.5h23.3V719h0.3
			c2.4-4,5.8-7.3,10.1-9.8c4.4-2.5,9.1-3.8,14.3-3.8c10.7,0,18,4.7,21.9,14.1c5.8-9.4,14.2-14.1,25.4-14.1
			c16.4,0,24.6,10.1,24.6,30.4V782.7z"/>
		<path fill="#58595B" d="M383.8,773.9h-0.3v8.8h-23.3V670.9h23.3v47.6h0.3c5.8-8.8,13.9-13.2,24.6-13.2c9.7,0,17.2,3.3,22.5,10
			c5.3,6.7,7.9,15.8,7.9,27.4c0,12.6-3.1,22.7-9.2,30.3c-6.1,7.6-14.4,11.4-24.6,11.4C395.6,784.6,388.5,781,383.8,773.9z
			 M383.1,742.1v7.7c0,4.9,1.4,8.9,4.2,12.1c2.8,3.2,6.4,4.8,10.8,4.8c5.3,0,9.4-2.1,12.4-6.2c2.9-4.1,4.4-9.9,4.4-17.4
			c0-6.2-1.3-11.1-4-14.6c-2.7-3.5-6.5-5.3-11.5-5.3c-4.7,0-8.5,1.7-11.6,5.2C384.6,731.9,383.1,736.5,383.1,742.1z"/>
		<path fill="#58595B" d="M521.7,751.6h-49.3c0.8,11,7.7,16.4,20.7,16.4c8.3,0,15.6-2,21.9-5.9V779c-7,3.7-16.1,5.6-27.2,5.6
			c-12.2,0-21.7-3.4-28.4-10.1c-6.7-6.8-10.1-16.2-10.1-28.3c0-12.5,3.6-22.5,10.9-29.8c7.3-7.3,16.2-11,26.8-11
			c11,0,19.5,3.3,25.6,9.8c6,6.5,9,15.4,9,26.6V751.6z M500.1,737.3c0-10.8-4.4-16.2-13.1-16.2c-3.7,0-7,1.5-9.7,4.6
			c-2.7,3.1-4.4,7-5,11.6H500.1z"/>
		<path fill="#58595B" d="M584.8,728.2c-2.8-1.5-6.1-2.3-9.8-2.3c-5.1,0-9,1.9-11.9,5.6c-2.9,3.7-4.3,8.8-4.3,15.2v36.1h-23.3v-75.5
			h23.3v14h0.3c3.7-10.2,10.3-15.3,19.9-15.3c2.5,0,4.4,0.3,5.8,0.9V728.2z"/>
		<path fill="#58595B" d="M673.8,779c-7.7,3.7-17.8,5.6-30.2,5.6c-16.2,0-29-4.8-38.3-14.3c-9.3-9.5-13.9-22.2-13.9-38.1
			c0-16.9,5.2-30.6,15.7-41.2c10.4-10.5,24-15.8,40.7-15.8c10.3,0,19,1.3,26.1,3.9V702c-7.1-4.2-15.1-6.3-24.2-6.3
			c-9.9,0-17.9,3.1-24,9.4c-6.1,6.2-9.1,14.7-9.1,25.4c0,10.2,2.9,18.4,8.6,24.4c5.8,6.1,13.5,9.1,23.2,9.1c9.3,0,17.8-2.3,25.5-6.8
			V779z"/>
		<path fill="#58595B" d="M725.9,784.6c-12.6,0-22.5-3.5-29.7-10.6c-7.2-7.1-10.8-16.6-10.8-28.7c0-12.5,3.7-22.3,11.2-29.3
			c7.5-7.1,17.6-10.6,30.3-10.6c12.5,0,22.4,3.5,29.5,10.6c7.1,7.1,10.7,16.4,10.7,28c0,12.5-3.7,22.4-11,29.7
			C748.8,780.9,738.7,784.6,725.9,784.6z M726.5,723.2c-5.5,0-9.8,1.9-12.8,5.7c-3,3.8-4.6,9.1-4.6,16.1c0,14.5,5.9,21.8,17.6,21.8
			c11.2,0,16.7-7.4,16.7-22.3C743.4,730.2,737.8,723.2,726.5,723.2z"/>
		<path fill="#58595B" d="M902.2,782.7H879v-43.1c0-11-4-16.4-12.1-16.4c-3.8,0-7,1.6-9.4,4.9c-2.4,3.3-3.6,7.4-3.6,12.3v42.3h-23.3
			v-43.5c0-10.7-4-16-11.9-16c-4,0-7.2,1.6-9.6,4.7c-2.4,3.1-3.6,7.4-3.6,12.8v42h-23.3v-75.5h23.3V719h0.3c2.4-4,5.8-7.3,10.1-9.8
			c4.4-2.5,9.1-3.8,14.3-3.8c10.7,0,18,4.7,21.9,14.1c5.8-9.4,14.2-14.1,25.4-14.1c16.4,0,24.6,10.1,24.6,30.4V782.7z"/>
	</g>
</g>
</svg>
