<?xml version="1.0" encoding="utf-8"?>
<!-- Generator: Adobe Illustrator 18.1.1, SVG Export Plug-In . SVG Version: 6.00 Build 0)  -->
<svg version="1.1" id="Layer_1" xmlns="http://www.w3.org/2000/svg" xmlns:xlink="http://www.w3.org/1999/xlink" x="0px" y="0px"
	 viewBox="0 0 1000 1000" enable-background="new 0 0 1000 1000" xml:space="preserve">
<g>
	<path fill="#2C2B2D" d="M932.7,250.3v-0.3L717.9,126L500.3,0l0,0.3L499.7,0L67.8,249.5l-0.9,0.5v500.1l0.9,0.5L499.7,1000v0
		l431.1-248.8c1.2-0.7,1.9-2,1.9-3.4V387l0.3,0.2V250.5L932.7,250.3z M814.4,681.6L499.7,863.3h0L187.2,682.4
		c-1.2-0.7-1.9-2-1.9-3.4V320v-1.6l314.5-181.7l1.5,0.9l0,0.1l311.3,179.8c1.2,0.7,1.9,2,1.9,3.4L814.4,681.6L814.4,681.6z"/>
	<path fill="#2C2B2D" d="M500,341.3l-166.9,96.1c-1.1,0.6-1.7,1.7-1.7,2.9v191.9c0,1.2,0.6,2.3,1.7,2.9l40.6,23.4
		c2.3,1.3,5.1-0.3,5.1-2.9l0.1-129.4c0-2.6,2.8-4.2,5.1-2.9l112.5,64.9c1,0.6,2.3,0.6,3.4,0l0.2-0.1l116.1-66.8
		c2.3-1.3,5.1,0.3,5.1,2.9l0.1,131.4c0,2.6,2.8,4.2,5.1,2.9l40.5-23.4c1.1-0.6,1.7-1.7,1.7-3l-1-193.2c0-1.2-0.7-2.3-1.7-2.9
		l-165.2-95.2L500,341.3z M614.8,461.5c2.3,1.3,2.3,4.6,0,5.9L500,533.6h0c-1,0.6-2.3,0.6-3.4,0L384,468.7c-2.3-1.3-2.3-4.6,0-5.9
		l116-66.8l0.6-0.4L614.8,461.5z"/>
</g>
</svg>
