<?xml version="1.0" encoding="utf-8"?>
<!-- Generator: Adobe Illustrator 18.1.1, SVG Export Plug-In . SVG Version: 6.00 Build 0)  -->
<svg version="1.1" id="Layer_1" xmlns="http://www.w3.org/2000/svg" xmlns:xlink="http://www.w3.org/1999/xlink" x="0px" y="0px"
	 viewBox="0 0 1183.6 452.7" enable-background="new 0 0 1183.6 452.7" xml:space="preserve">
<g>
	<path fill="#E2F3DB" d="M1125.4,0H58.3C26.1,0,0,10.1,0,22.6v407.4c0,12.5,26.1,22.6,58.3,22.6h1067.1c32.2,0,58.3-10.1,58.3-22.6
		V22.6C1183.6,10.1,1157.5,0,1125.4,0z"/>
	<g>
		<g>
			<path fill="#291E70" d="M434.5,20.4H55.3c-10.8,0-19.5,8.7-19.5,19.5v372.9c0,10.8,8.7,19.5,19.5,19.5h379.1
				c10.8,0,19.5-8.7,19.5-19.5V39.9C454,29.2,445.2,20.4,434.5,20.4z M442.9,401.8c0,10.8-8.7,19.5-19.5,19.5h-357
				c-10.8,0-19.5-8.7-19.5-19.5V51c0-10.8,8.7-19.5,19.5-19.5h357c10.8,0,19.5,8.7,19.5,19.5V401.8z"/>
			<path fill="#219355" d="M396.9,80.4l-1.3-1c-8.4-6.5-20.5-5.1-27.1,3.3l-29.4,36.7c-6.6,8.3-18.7,9.8-27.2,3.2l0,0
				c-8.4-6.5-20.5-5.1-27.1,3.2l-0.9,1.1c-6.8,8.5-5.3,20.9,3.3,27.6l14.7,11.4l0,0l11.2,8.7l20.4,15.8l0,0l0.5,0.4l66.2-82.8
				C407,99.5,405.5,87,396.9,80.4z"/>
			<g>
				<path fill="#291E70" d="M199.1,58.4H96.4C85.7,58.4,77,67.2,77,77.9v102.6c0,10.8,8.7,19.5,19.5,19.5h102.6
					c10.8,0,19.5-8.7,19.5-19.5V77.9C218.6,67.2,209.9,58.4,199.1,58.4z"/>
				<path fill="#291E70" d="M96.4,394.3h102.6c10.8,0,19.5-8.7,19.5-19.5V272.2c0-10.8-8.7-19.5-19.5-19.5H96.4
					c-10.8,0-19.5,8.7-19.5,19.5v102.6C77,385.6,85.7,394.3,96.4,394.3z"/>
				<path fill="#291E70" d="M290.7,394.3h102.6c10.8,0,19.5-8.7,19.5-19.5V272.2c0-10.8-8.7-19.5-19.5-19.5H290.7
					c-10.8,0-19.5,8.7-19.5,19.5v102.6C271.2,385.6,279.9,394.3,290.7,394.3z"/>
			</g>
		</g>
		<g>
			<path fill="#291E70" d="M512.9,75.9h82.6c0,1.1-0.1,2.7-0.2,4.6c-0.1,2-0.2,4-0.4,6.1c-0.2,2.1-0.4,4.2-0.7,6.2
				c-0.3,2.1-0.7,3.8-1.2,5.2h-26.5v82.6h-25.9V98.1h-27.7V75.9z"/>
			<path fill="#291E70" d="M590,148c0-8.5,1.2-15.7,3.5-21.6c2.3-5.9,5.5-10.6,9.6-14.2c4.1-3.6,9-6.2,14.6-7.8
				c5.6-1.6,11.8-2.4,18.5-2.4c4.7,0,9.4,0.2,14.1,0.5c4.7,0.3,9.4,0.7,14.3,1.1v77H640v-21.3c-1.6,4.3-3.4,7.9-5.3,10.9
				c-1.9,2.9-3.9,5.3-6.1,7.1c-2.2,1.8-4.5,3.1-6.9,3.8c-2.5,0.7-5,1.1-7.7,1.1c-3.8,0-7.2-0.8-10.2-2.5c-3-1.6-5.5-4-7.5-6.9
				c-2.1-3-3.6-6.6-4.6-10.8C590.6,157.8,590,153.1,590,148z M623.9,163.4c2.5,0,4.6-1,6.5-2.9c1.9-1.9,3.6-4.7,5-8.4
				c1.4-3.6,2.7-8,3.9-13.2c1.1-5.1,2.2-10.9,3.1-17.3c-1.4-0.2-3-0.4-4.5-0.5c-1.6-0.2-3.2-0.2-4.7-0.2c-7.1,0-12,1.6-14.9,4.7
				c-2.8,3.1-4.2,7.6-4.2,13.5c0,3.3,0.2,6.4,0.6,9.3c0.4,2.9,1.1,5.5,1.9,7.8c0.9,2.3,1.9,4,3.2,5.3
				C621,162.8,622.4,163.4,623.9,163.4z"/>
			<path fill="#291E70" d="M706,164.5c2.9,0,5.2-0.1,7.1-0.3c1.8-0.2,3.3-0.5,4.4-1c1.1-0.5,1.8-1.1,2.3-1.8
				c0.5-0.8,0.7-1.7,0.7-2.7c0-1.9-1-3.4-3-4.3c-2-0.9-4.5-1.7-7.5-2.3c-3-0.6-6.2-1.3-9.8-2c-3.5-0.7-6.8-1.9-9.8-3.5
				c-3-1.6-5.5-3.9-7.5-6.8c-2-2.9-3-6.8-3-11.7c0-8.7,3.3-15.2,10-19.5c6.7-4.3,16-6.4,28-6.4c4.3,0,8.7,0.4,13,1.1
				c4.4,0.7,8.1,1.5,11.2,2.5c-0.1,1.2-0.2,2.6-0.4,4.2c-0.2,1.5-0.4,3.1-0.7,4.7c-0.3,1.6-0.6,3.1-0.9,4.6
				c-0.3,1.5-0.7,2.8-1.1,3.9c-3.9-1-7.5-1.8-10.9-2.4c-3.4-0.6-6.8-0.8-10.2-0.8c-4.6,0-7.9,0.5-9.9,1.5c-2,1-2.9,2.5-2.9,4.5
				c0,1.8,1,3.2,3,3.9c2,0.8,4.5,1.4,7.5,2c3,0.6,6.2,1.2,9.8,1.8c3.5,0.7,6.8,1.8,9.8,3.4c3,1.6,5.5,3.9,7.5,6.8
				c2,2.9,3,6.9,3,11.9c0,4.9-1,9.1-2.9,12.5c-1.9,3.4-4.5,6.1-7.8,8.2c-3.3,2.1-7.2,3.6-11.6,4.5s-9.3,1.3-14.6,1.3
				c-2.2,0-4.6-0.1-7.2-0.3c-2.7-0.2-5.3-0.5-7.9-0.8c-2.6-0.3-4.9-0.7-7-1.2c-2.1-0.5-3.6-0.9-4.5-1.3c-0.9-2.7-1.7-5.6-2.4-8.9
				c-0.7-3.2-1.1-6.2-1.3-8.9c1.5,0.4,3.4,0.8,5.6,1.2c2.2,0.4,4.5,0.8,7,1.2c2.5,0.4,5,0.6,7.5,0.8
				C701.4,164.4,703.8,164.5,706,164.5z"/>
			<path fill="#291E70" d="M783.1,180.7h-24.6V69.7h24.6v72.1l27.1-38.2h26.7L810.3,140l26.3,40.7c-1.2,0.2-2.6,0.3-4.2,0.4
				c-1.6,0.1-3.2,0.1-4.7,0.2c-1.5,0.1-3,0.2-4.3,0.2c-1.3,0-2.4,0-3.2,0c-2.5,0-4.6-0.2-6.5-0.5c-1.8-0.4-3.5-0.9-4.9-1.7
				c-1.4-0.8-2.6-1.8-3.6-3c-1-1.2-2.1-2.8-3.1-4.6l-19.1-29.7V180.7z"/>
			<path fill="#219355" d="M518.7,242.8h20.2c3.4,0,6.4,0.2,9.1,0.5c2.7,0.4,5,1.2,7,2.5c2,1.3,3.7,3.3,5.2,5.9
				c1.5,2.6,2.7,6.1,3.8,10.5l13.2,48.4h0.8l12.5-48.4c0.7-3.7,1.6-6.8,2.7-9.2c1.1-2.5,2.5-4.4,4.3-5.9c1.8-1.5,4.1-2.6,6.9-3.2
				c2.8-0.7,6.3-1,10.6-1h21.3v104.8h-24.6v-75h-0.8l-20.3,75h-27.1l-20.6-75h-0.6v75h-23.4V242.8z"/>
			<path fill="#219355" d="M651.5,314.9c0-8.5,1.2-15.7,3.5-21.6c2.3-5.9,5.5-10.6,9.6-14.2c4.1-3.6,9-6.2,14.6-7.8
				c5.6-1.6,11.8-2.4,18.5-2.4c4.7,0,9.4,0.2,14.1,0.5c4.7,0.3,9.4,0.7,14.3,1.1v77h-24.6v-21.3c-1.6,4.3-3.4,7.9-5.3,10.9
				c-1.9,2.9-3.9,5.3-6.1,7.1c-2.2,1.8-4.5,3.1-6.9,3.8s-5,1.1-7.7,1.1c-3.8,0-7.2-0.8-10.2-2.5c-3-1.6-5.5-4-7.5-6.9
				c-2.1-3-3.6-6.6-4.6-10.8C652,324.7,651.5,320,651.5,314.9z M685.4,330.3c2.5,0,4.6-1,6.5-2.9c1.9-1.9,3.6-4.7,5-8.4
				c1.4-3.6,2.7-8,3.9-13.2c1.1-5.1,2.2-10.9,3.1-17.3c-1.4-0.2-3-0.4-4.5-0.5c-1.6-0.2-3.2-0.2-4.7-0.2c-7.1,0-12,1.6-14.9,4.7
				c-2.8,3.1-4.2,7.6-4.2,13.5c0,3.3,0.2,6.4,0.6,9.3c0.4,2.9,1.1,5.5,1.9,7.8c0.9,2.3,1.9,4,3.2,5.3
				C682.5,329.7,683.9,330.3,685.4,330.3z"/>
			<path fill="#219355" d="M767.2,270.5c0.5,4.3,0.9,8.2,1.3,11.6c0.4,3.4,0.6,6.9,0.7,10.2c3.3-8.9,7.2-15.1,11.6-18.4
				c4.5-3.3,9.5-5,15-5c2.8,0,5.5,0.5,8.2,1.4c2.7,0.9,5.2,2.5,7.3,4.7c2.2,2.2,3.9,5.2,5.2,8.9s2,8.5,2,14.2v49.3H794V304
				c0-5.5-0.6-9.6-1.7-12.2c-1.1-2.6-3.4-3.9-6.9-3.9c-3,0-5.5,1.6-7.5,4.9c-2.1,3.3-3.7,7.7-4.9,13.2c-1.2,5.5-2.1,11.8-2.7,19
				c-0.6,7.2-0.8,14.7-0.8,22.6h-24.6v-49.3c0-5.4-0.2-10.3-0.5-14.5c-0.4-4.2-0.7-8.6-1-13.2H767.2z"/>
			<path fill="#219355" d="M833.8,314.9c0-8.5,1.2-15.7,3.5-21.6c2.3-5.9,5.5-10.6,9.6-14.2c4.1-3.6,9-6.2,14.6-7.8
				c5.6-1.6,11.8-2.4,18.5-2.4c4.7,0,9.4,0.2,14.1,0.5c4.7,0.3,9.4,0.7,14.3,1.1v77h-24.6v-21.3c-1.6,4.3-3.4,7.9-5.3,10.9
				c-1.9,2.9-3.9,5.3-6.1,7.1c-2.2,1.8-4.5,3.1-6.9,3.8c-2.5,0.7-5,1.1-7.7,1.1c-3.8,0-7.2-0.8-10.2-2.5c-3-1.6-5.5-4-7.5-6.9
				c-2.1-3-3.6-6.6-4.6-10.8C834.3,324.7,833.8,320,833.8,314.9z M867.7,330.3c2.5,0,4.6-1,6.5-2.9c1.9-1.9,3.6-4.7,5-8.4
				c1.4-3.6,2.7-8,3.9-13.2c1.1-5.1,2.2-10.9,3.1-17.3c-1.4-0.2-3-0.4-4.5-0.5c-1.6-0.2-3.2-0.2-4.7-0.2c-7.1,0-12,1.6-14.9,4.7
				c-2.8,3.1-4.2,7.6-4.2,13.5c0,3.3,0.2,6.4,0.6,9.3c0.4,2.9,1.1,5.5,1.9,7.8c0.9,2.3,1.9,4,3.2,5.3
				C864.7,329.7,866.1,330.3,867.7,330.3z"/>
			<path fill="#219355" d="M923.4,314.9c0-8.5,1.2-15.7,3.5-21.6c2.3-5.9,5.5-10.6,9.6-14.2c4.1-3.6,9-6.2,14.6-7.8
				c5.6-1.6,11.8-2.4,18.5-2.4c4.7,0,9.4,0.2,14.1,0.5c4.7,0.3,9.4,0.7,14.3,1.1v70.9c0,13.5-3.6,23.7-10.9,30.9
				c-7.3,7.1-19.1,10.7-35.4,10.7c-4.4,0-8.7-0.2-12.7-0.7c-4.1-0.5-7-1.1-8.7-1.8c-0.6-2.3-1.1-5.1-1.4-8.4
				c-0.3-3.3-0.5-6.4-0.5-9.3c1.4,0.2,3,0.4,4.8,0.5c1.7,0.2,3.5,0.3,5.4,0.5c1.8,0.2,3.7,0.3,5.5,0.3c1.8,0.1,3.4,0.1,4.7,0.1
				c5.4,0,9.8-0.7,13.1-2c3.3-1.3,5.8-3.1,7.5-5.2c1.7-2.2,2.8-4.6,3.3-7.3c0.5-2.7,0.8-5.5,0.8-8.2v-15.1
				c-1.6,4.3-3.4,7.9-5.3,10.9c-1.9,2.9-3.9,5.3-6.1,7.1c-2.2,1.8-4.5,3.1-6.9,3.8c-2.5,0.7-5,1.1-7.7,1.1c-3.8,0-7.2-0.8-10.2-2.5
				c-3-1.6-5.5-4-7.5-6.9c-2.1-3-3.6-6.6-4.6-10.8C923.9,324.7,923.4,320,923.4,314.9z M947.5,306c0,3.3,0.2,6.4,0.6,9.3
				c0.4,2.9,1.1,5.5,1.9,7.8c0.9,2.3,1.9,4,3.2,5.3c1.2,1.3,2.6,1.9,4.2,1.9c2.5,0,4.6-1,6.5-2.9c1.9-1.9,3.6-4.7,5-8.4
				c1.4-3.6,2.7-8,3.9-13.2c1.1-5.1,2.2-10.9,3.1-17.3c-1.4-0.2-3-0.4-4.5-0.5c-1.6-0.2-3.2-0.2-4.7-0.2c-7.1,0-12,1.6-14.9,4.7
				C948.9,295.6,947.5,300.1,947.5,306z"/>
			<path fill="#219355" d="M1013.1,309c0-6.8,1-12.7,3.1-17.7c2.1-5,4.9-9.2,8.5-12.6c3.6-3.3,8-5.8,13-7.4c5-1.6,10.5-2.4,16.5-2.4
				c11.7,0,20.7,3.3,27,9.9s9.5,16.3,9.5,29.1c-1.3,3.2-3.1,6-5.2,8.5c-10,0-18.7-0.1-26.2-0.2c-7.5-0.2-14.4-0.7-20.6-1.6
				c0.8,4.8,2.7,8.7,5.7,11.5c3,2.8,7.5,4.2,13.7,4.2c6.1,0,11.4-0.3,16.1-0.9c4.7-0.6,8.6-1.3,11.6-2.2c0,1.3-0.1,2.9-0.2,4.6
				c-0.2,1.7-0.4,3.5-0.6,5.2s-0.6,3.3-0.9,4.9c-0.4,1.6-0.7,3-1.2,4.1c-2.7,0.8-6.1,1.5-10.4,2.2c-4.3,0.6-9.1,0.9-14.4,0.9
				c-14.5,0-25.6-3.3-33.4-10C1017,332.4,1013.1,322.4,1013.1,309z M1038.5,306c4.9-1.2,9.6-2.1,13.9-2.5c4.3-0.5,9-0.7,14-0.8
				c-0.5-4.9-1.8-8.6-3.9-11.1c-2.1-2.5-5.2-3.7-9.4-3.7c-4.4,0-7.9,1.6-10.4,4.7C1040.2,295.6,1038.8,300.1,1038.5,306z"/>
			<path fill="#219355" d="M1128.3,270.5c0.7,5.2,1.3,9.9,1.6,13.9c0.4,4.1,0.5,8.2,0.5,12.6c3.9-9.3,8.6-16.4,13.9-21
				c5.4-4.7,10.9-7,16.6-7c0.6,3.5,1.1,7.4,1.4,11.8c0.3,4.4,0.5,8.6,0.5,12.7c-6.3,0-11.4,0.6-15.5,1.9c-4.1,1.2-7.3,3.4-9.7,6.5
				c-2.4,3.1-4.2,7.4-5.2,12.9c-1.1,5.4-1.7,12.4-1.9,21v11.9h-24.6v-49.3c0-5.4-0.2-10.3-0.5-14.5c-0.4-4.2-0.7-8.6-1-13.2H1128.3z
				"/>
		</g>
	</g>
</g>
</svg>
